<svg width="394" height="157" viewBox="0 0 394 157" fill="none" xmlns="http://www.w3.org/2000/svg">
<g clip-path="url(#clip0_1_2)">
<path d="M16 81H12C9.79086 81 8 82.7909 8 85V131C8 133.209 9.79086 135 12 135H16C18.2091 135 20 133.209 20 131V85C20 82.7909 18.2091 81 16 81Z" fill="#62C476"/>
<path d="M78 48.001H74C71.7909 48.001 70 49.7919 70 52.001V131.001C70 133.21 71.7909 135.001 74 135.001H78C80.2091 135.001 82 133.21 82 131.001V52.001C82 49.7919 80.2091 48.001 78 48.001Z" fill="#62C476"/>
<path d="M138 36H134C131.791 36 130 37.7909 130 40V131C130 133.209 131.791 135 134 135H138C140.209 135 142 133.209 142 131V40C142 37.7909 140.209 36 138 36Z" fill="#62C476"/>
<path d="M200 12.001H196C193.791 12.001 192 13.7919 192 16.001V131.001C192 133.21 193.791 135.001 196 135.001H200C202.209 135.001 204 133.21 204 131.001V16.001C204 13.7919 202.209 12.001 200 12.001Z" fill="#62C476"/>
<path d="M261 23H257C254.791 23 253 24.7909 253 27V131C253 133.209 254.791 135 257 135H261C263.209 135 265 133.209 265 131V27C265 24.7909 263.209 23 261 23Z" fill="#62C476"/>
<path d="M323 12.001H319C316.791 12.001 315 13.7919 315 16.001V131.001C315 133.21 316.791 135.001 319 135.001H323C325.209 135.001 327 133.21 327 131.001V16.001C327 13.7919 325.209 12.001 323 12.001Z" fill="#62C476"/>
<path d="M384 0H380C377.791 0 376 1.79086 376 4V131C376 133.209 377.791 135 380 135H384C386.209 135 388 133.209 388 131V4C388 1.79086 386.209 0 384 0Z" fill="#62C476"/>
<path d="M13.877 146.356V154.001H12.623V148.765L10.291 154.001H9.422L7.079 148.765V154.001H5.825V146.356H7.178L9.862 152.351L12.535 146.356H13.877ZM18.1542 154.1C17.5822 154.1 17.0652 153.972 16.6032 153.715C16.1412 153.451 15.7782 153.084 15.5142 152.615C15.2502 152.138 15.1182 151.588 15.1182 150.965C15.1182 150.349 15.2539 149.803 15.5252 149.326C15.7965 148.849 16.1669 148.483 16.6362 148.226C17.1055 147.969 17.6299 147.841 18.2092 147.841C18.7885 147.841 19.3129 147.969 19.7822 148.226C20.2515 148.483 20.6219 148.849 20.8932 149.326C21.1645 149.803 21.3002 150.349 21.3002 150.965C21.3002 151.581 21.1609 152.127 20.8822 152.604C20.6035 153.081 20.2222 153.451 19.7382 153.715C19.2615 153.972 18.7335 154.1 18.1542 154.1ZM18.1542 153.011C18.4769 153.011 18.7775 152.934 19.0562 152.78C19.3422 152.626 19.5732 152.395 19.7492 152.087C19.9252 151.779 20.0132 151.405 20.0132 150.965C20.0132 150.525 19.9289 150.155 19.7602 149.854C19.5915 149.546 19.3679 149.315 19.0892 149.161C18.8105 149.007 18.5099 148.93 18.1872 148.93C17.8645 148.93 17.5639 149.007 17.2852 149.161C17.0139 149.315 16.7975 149.546 16.6362 149.854C16.4749 150.155 16.3942 150.525 16.3942 150.965C16.3942 151.618 16.5592 152.124 16.8892 152.483C17.2265 152.835 17.6482 153.011 18.1542 153.011Z" fill="#9E9DA7"/>
<path d="M74.02 146.119C74.76 146.119 75.4067 146.262 75.96 146.549C76.52 146.829 76.95 147.236 77.25 147.769C77.5567 148.296 77.71 148.912 77.71 149.619C77.71 150.326 77.5567 150.939 77.25 151.459C76.95 151.979 76.52 152.379 75.96 152.659C75.4067 152.932 74.76 153.069 74.02 153.069H71.75V146.119H74.02ZM74.02 152.139C74.8333 152.139 75.4567 151.919 75.89 151.479C76.3233 151.039 76.54 150.419 76.54 149.619C76.54 148.812 76.3233 148.182 75.89 147.729C75.4567 147.276 74.8333 147.049 74.02 147.049H72.89V152.139H74.02ZM79.4198 146.829C79.2132 146.829 79.0398 146.759 78.8998 146.619C78.7598 146.479 78.6898 146.306 78.6898 146.099C78.6898 145.892 78.7598 145.719 78.8998 145.579C79.0398 145.439 79.2132 145.369 79.4198 145.369C79.6198 145.369 79.7898 145.439 79.9298 145.579C80.0698 145.719 80.1398 145.892 80.1398 146.099C80.1398 146.306 80.0698 146.479 79.9298 146.619C79.7898 146.759 79.6198 146.829 79.4198 146.829ZM79.9798 147.559V153.069H78.8398V147.559H79.9798Z" fill="#9E9DA7"/>
<path d="M138.07 146.119V153.069H136.93V148.309L134.81 153.069H134.02L131.89 148.309V153.069H130.75V146.119H131.98L134.42 151.569L136.85 146.119H138.07ZM140.148 146.829C139.942 146.829 139.768 146.759 139.628 146.619C139.488 146.479 139.418 146.306 139.418 146.099C139.418 145.892 139.488 145.719 139.628 145.579C139.768 145.439 139.942 145.369 140.148 145.369C140.348 145.369 140.518 145.439 140.658 145.579C140.798 145.719 140.868 145.892 140.868 146.099C140.868 146.306 140.798 146.479 140.658 146.619C140.518 146.759 140.348 146.829 140.148 146.829ZM140.708 147.559V153.069H139.568V147.559H140.708Z" fill="#9E9DA7"/>
<path d="M194.322 146.356C195.136 146.356 195.847 146.514 196.456 146.829C197.072 147.137 197.545 147.584 197.875 148.171C198.212 148.75 198.381 149.429 198.381 150.206C198.381 150.983 198.212 151.658 197.875 152.23C197.545 152.802 197.072 153.242 196.456 153.55C195.847 153.851 195.136 154.001 194.322 154.001H191.825V146.356H194.322ZM194.322 152.978C195.217 152.978 195.902 152.736 196.379 152.252C196.856 151.768 197.094 151.086 197.094 150.206C197.094 149.319 196.856 148.626 196.379 148.127C195.902 147.628 195.217 147.379 194.322 147.379H193.079V152.978H194.322ZM202.253 154.1C201.681 154.1 201.164 153.972 200.702 153.715C200.24 153.451 199.877 153.084 199.613 152.615C199.349 152.138 199.217 151.588 199.217 150.965C199.217 150.349 199.352 149.803 199.624 149.326C199.895 148.849 200.265 148.483 200.735 148.226C201.204 147.969 201.728 147.841 202.308 147.841C202.887 147.841 203.411 147.969 203.881 148.226C204.35 148.483 204.72 148.849 204.992 149.326C205.263 149.803 205.399 150.349 205.399 150.965C205.399 151.581 205.259 152.127 204.981 152.604C204.702 153.081 204.321 153.451 203.837 153.715C203.36 153.972 202.832 154.1 202.253 154.1ZM202.253 153.011C202.575 153.011 202.876 152.934 203.155 152.78C203.441 152.626 203.672 152.395 203.848 152.087C204.024 151.779 204.112 151.405 204.112 150.965C204.112 150.525 204.027 150.155 203.859 149.854C203.69 149.546 203.466 149.315 203.188 149.161C202.909 149.007 202.608 148.93 202.286 148.93C201.963 148.93 201.662 149.007 201.384 149.161C201.112 149.315 200.896 149.546 200.735 149.854C200.573 150.155 200.493 150.525 200.493 150.965C200.493 151.618 200.658 152.124 200.988 152.483C201.325 152.835 201.747 153.011 202.253 153.011Z" fill="#9E9DA7"/>
<path d="M258.84 146.119V147.049H255.89V149.099H258.19V150.029H255.89V153.069H254.75V146.119H258.84ZM261.036 148.359C261.203 148.079 261.423 147.862 261.696 147.709C261.976 147.549 262.306 147.469 262.686 147.469V148.649H262.396C261.95 148.649 261.61 148.762 261.376 148.989C261.15 149.216 261.036 149.609 261.036 150.169V153.069H259.896V147.559H261.036V148.359Z" fill="#9E9DA7"/>
<path d="M317.04 153.139C316.573 153.139 316.153 153.059 315.78 152.899C315.407 152.732 315.113 152.499 314.9 152.199C314.687 151.899 314.58 151.549 314.58 151.149H315.8C315.827 151.449 315.943 151.696 316.15 151.889C316.363 152.082 316.66 152.179 317.04 152.179C317.433 152.179 317.74 152.086 317.96 151.899C318.18 151.706 318.29 151.459 318.29 151.159C318.29 150.926 318.22 150.736 318.08 150.589C317.947 150.442 317.777 150.329 317.57 150.249C317.37 150.169 317.09 150.082 316.73 149.989C316.277 149.869 315.907 149.749 315.62 149.629C315.34 149.502 315.1 149.309 314.9 149.049C314.7 148.789 314.6 148.442 314.6 148.009C314.6 147.609 314.7 147.259 314.9 146.959C315.1 146.659 315.38 146.429 315.74 146.269C316.1 146.109 316.517 146.029 316.99 146.029C317.663 146.029 318.213 146.199 318.64 146.539C319.073 146.872 319.313 147.332 319.36 147.919H318.1C318.08 147.666 317.96 147.449 317.74 147.269C317.52 147.089 317.23 146.999 316.87 146.999C316.543 146.999 316.277 147.082 316.07 147.249C315.863 147.416 315.76 147.656 315.76 147.969C315.76 148.182 315.823 148.359 315.95 148.499C316.083 148.632 316.25 148.739 316.45 148.819C316.65 148.899 316.923 148.986 317.27 149.079C317.73 149.206 318.103 149.332 318.39 149.459C318.683 149.586 318.93 149.782 319.13 150.049C319.337 150.309 319.44 150.659 319.44 151.099C319.44 151.452 319.343 151.786 319.15 152.099C318.963 152.412 318.687 152.666 318.32 152.859C317.96 153.046 317.533 153.139 317.04 153.139ZM320.405 150.289C320.405 149.736 320.518 149.246 320.745 148.819C320.978 148.392 321.292 148.062 321.685 147.829C322.085 147.589 322.525 147.469 323.005 147.469C323.438 147.469 323.815 147.556 324.135 147.729C324.462 147.896 324.722 148.106 324.915 148.359V147.559H326.065V153.069H324.915V152.249C324.722 152.509 324.458 152.726 324.125 152.899C323.792 153.072 323.412 153.159 322.985 153.159C322.512 153.159 322.078 153.039 321.685 152.799C321.292 152.552 320.978 152.212 320.745 151.779C320.518 151.339 320.405 150.842 320.405 150.289ZM324.915 150.309C324.915 149.929 324.835 149.599 324.675 149.319C324.522 149.039 324.318 148.826 324.065 148.679C323.812 148.532 323.538 148.459 323.245 148.459C322.952 148.459 322.678 148.532 322.425 148.679C322.172 148.819 321.965 149.029 321.805 149.309C321.652 149.582 321.575 149.909 321.575 150.289C321.575 150.669 321.652 151.002 321.805 151.289C321.965 151.576 322.172 151.796 322.425 151.949C322.685 152.096 322.958 152.169 323.245 152.169C323.538 152.169 323.812 152.096 324.065 151.949C324.318 151.802 324.522 151.589 324.675 151.309C324.835 151.022 324.915 150.689 324.915 150.309Z" fill="#9E9DA7"/>
<path d="M378.344 154.078C377.831 154.078 377.369 153.99 376.958 153.814C376.547 153.631 376.225 153.374 375.99 153.044C375.755 152.714 375.638 152.329 375.638 151.889H376.98C377.009 152.219 377.138 152.49 377.365 152.703C377.6 152.916 377.926 153.022 378.344 153.022C378.777 153.022 379.114 152.919 379.356 152.714C379.598 152.501 379.719 152.23 379.719 151.9C379.719 151.643 379.642 151.434 379.488 151.273C379.341 151.112 379.154 150.987 378.927 150.899C378.707 150.811 378.399 150.716 378.003 150.613C377.504 150.481 377.097 150.349 376.782 150.217C376.474 150.078 376.21 149.865 375.99 149.579C375.77 149.293 375.66 148.912 375.66 148.435C375.66 147.995 375.77 147.61 375.99 147.28C376.21 146.95 376.518 146.697 376.914 146.521C377.31 146.345 377.768 146.257 378.289 146.257C379.03 146.257 379.635 146.444 380.104 146.818C380.581 147.185 380.845 147.691 380.896 148.336H379.51C379.488 148.057 379.356 147.819 379.114 147.621C378.872 147.423 378.553 147.324 378.157 147.324C377.798 147.324 377.504 147.416 377.277 147.599C377.05 147.782 376.936 148.046 376.936 148.391C376.936 148.626 377.006 148.82 377.145 148.974C377.292 149.121 377.475 149.238 377.695 149.326C377.915 149.414 378.216 149.509 378.597 149.612C379.103 149.751 379.514 149.891 379.829 150.03C380.152 150.169 380.423 150.386 380.643 150.679C380.87 150.965 380.984 151.35 380.984 151.834C380.984 152.223 380.878 152.589 380.665 152.934C380.46 153.279 380.155 153.557 379.752 153.77C379.356 153.975 378.887 154.078 378.344 154.078ZM385.093 154.1C384.521 154.1 384.004 153.972 383.542 153.715C383.08 153.451 382.717 153.084 382.453 152.615C382.189 152.138 382.057 151.588 382.057 150.965C382.057 150.349 382.192 149.803 382.464 149.326C382.735 148.849 383.105 148.483 383.575 148.226C384.044 147.969 384.568 147.841 385.148 147.841C385.727 147.841 386.251 147.969 386.721 148.226C387.19 148.483 387.56 148.849 387.832 149.326C388.103 149.803 388.239 150.349 388.239 150.965C388.239 151.581 388.099 152.127 387.821 152.604C387.542 153.081 387.161 153.451 386.677 153.715C386.2 153.972 385.672 154.1 385.093 154.1ZM385.093 153.011C385.415 153.011 385.716 152.934 385.995 152.78C386.281 152.626 386.512 152.395 386.688 152.087C386.864 151.779 386.952 151.405 386.952 150.965C386.952 150.525 386.867 150.155 386.699 149.854C386.53 149.546 386.306 149.315 386.028 149.161C385.749 149.007 385.448 148.93 385.126 148.93C384.803 148.93 384.502 149.007 384.224 149.161C383.952 149.315 383.736 149.546 383.575 149.854C383.413 150.155 383.333 150.525 383.333 150.965C383.333 151.618 383.498 152.124 383.828 152.483C384.165 152.835 384.587 153.011 385.093 153.011Z" fill="#9E9DA7"/>
</g>
<defs>
<clipPath id="clip0_1_2">
<rect width="394" height="157" fill="white"/>
</clipPath>
</defs>
</svg>
