<svg aria-hidden="true" style="position: absolute; width: 0; height: 0; overflow: hidden;" version="1.1" xmlns="http://www.w3.org/2000/svg" xmlns:xlink="http://www.w3.org/1999/xlink">
<defs>
<symbol id="icon-e5" viewBox="0 0 33 32">
<path d="M12.934 0.498c-2.51 0.556-5.308 1.954-7.128 3.583-0.402 0.345-0.862 0.69-1.035 0.747-0.172 0.077-0.479 0.46-0.69 0.862s-0.69 1.284-1.073 1.974c-1.092 1.974-1.686 4.311-1.782 6.994-0.058 1.265-0.23 2.778-0.383 3.372-0.307 1.169-0.23 1.629 0.287 1.801 0.211 0.058 0.517 0.69 0.862 1.782 0.786 2.453 1.571 3.794 3.085 5.308 4.695 4.733 10.98 6.247 17.054 4.12 3.775-1.303 7.32-5.059 8.929-9.389 0.345-0.958 0.747-1.725 0.862-1.725s0.326-0.134 0.46-0.287c0.192-0.23 0.172-0.537-0.077-1.533-0.172-0.671-0.307-1.763-0.307-2.395 0-1.61-0.479-3.794-1.284-5.787-1.801-4.503-5.116-7.569-9.83-9.063-2.069-0.671-5.825-0.843-7.952-0.364zM20.407 2.587c3.813 0.977 7.492 4.005 9.293 7.665 1.686 3.411 1.552 7.722-0.364 11.689-1.705 3.564-4.331 5.825-8.412 7.243-2.165 0.766-5.327 0.939-7.607 0.422-1.763-0.383-4.446-1.705-5.71-2.778-1.456-1.284-3.89-4.675-4.541-6.343-1.916-5.001-0.556-9.849 4.043-14.275 2.184-2.089 4.695-3.392 7.492-3.909 1.341-0.23 4.369-0.096 5.806 0.287z"></path>
<path d="M10.443 8.393c-0.479 0.096-1.38 0.939-1.744 1.61-0.996 1.897 0.728 3.986 2.644 3.2 0.766-0.326 1.686-1.744 1.686-2.644 0-0.92-0.613-1.897-1.284-2.050-0.287-0.057-0.613-0.134-0.728-0.153-0.096-0.019-0.364 0-0.575 0.038z"></path>
<path d="M20.733 9.044c-1.207 1.265-1.36 2.702-0.402 3.717 0.996 1.054 2.529 0.728 3.487-0.747 1.15-1.763 0.268-3.583-1.744-3.583-0.575 0-0.862 0.134-1.341 0.613z"></path>
<path d="M14.237 18.089c-1.495 0.556-1.993 0.881-3.353 2.184-1.131 1.073-1.418 1.801-0.824 2.031 0.441 0.153 0.728-0.019 1.245-0.786 0.613-0.881 2.453-2.089 3.813-2.472 1.859-0.556 3.851-0.077 5.499 1.341 1.054 0.901 2.184 1.648 2.51 1.648 0.134 0 0.402-0.307 0.575-0.671l0.326-0.671-0.747-0.766c-0.402-0.422-0.786-0.709-0.843-0.671-0.038 0.058 0.23 0.422 0.613 0.824s0.709 0.786 0.709 0.843c0 0.077-0.402-0.287-0.901-0.824-0.594-0.632-1.38-1.188-2.338-1.667-1.322-0.632-1.629-0.69-3.277-0.747-1.533-0.058-2.012 0.019-3.008 0.402z"></path>
<path d="M11.056 22.151c-0.192 0.249-0.537 0.46-0.747 0.46-0.326 0-0.364 0.058-0.211 0.211 0.268 0.268 1.15-0.211 1.341-0.709 0.172-0.479-0.019-0.46-0.383 0.038z"></path>
<path d="M25.217 2.587c0.479 0.364 0.671 0.364 0.537 0-0.077-0.153-0.307-0.287-0.517-0.287-0.383 0-0.383 0-0.019 0.287z"></path>
<path d="M3.871 4.637c-0.134 0.134-0.23 0.402-0.23 0.613 0.019 0.402 0.019 0.402 0.23 0.019 0.115-0.211 0.364-0.479 0.517-0.613 0.268-0.211 0.268-0.23 0.019-0.249-0.172 0-0.402 0.096-0.537 0.23z"></path>
<path d="M0.211 18.721c-0.115 0.402-0.211 0.843-0.211 0.958 0 0.268 0.92 0.92 1.073 0.766 0.058-0.058-0.077-0.211-0.307-0.326-0.383-0.211-0.422-0.326-0.307-1.169 0.153-1.111 0.019-1.226-0.249-0.23z"></path>
<path d="M32.153 20.254c-0.192 0.038-0.345 0.153-0.345 0.249 0 0.192 0.728 0.019 0.881-0.211 0.096-0.172 0.019-0.192-0.537-0.038z"></path>
</symbol>
<symbol id="icon-e3" viewBox="0 0 33 32">
<path d="M12.934 0.498c-2.491 0.556-5.25 1.897-6.917 3.392-0.517 0.46-1.092 0.881-1.284 0.958-0.172 0.077-0.441 0.364-0.556 0.651-0.134 0.287-0.517 0.958-0.862 1.495-1.303 2.031-2.165 5.25-2.165 8.144 0 1.054-0.134 2.261-0.326 3.008l-0.345 1.245 0.517 0.422c0.345 0.268 0.651 0.843 0.939 1.744 0.575 1.859 1.514 3.66 2.491 4.771 1.954 2.223 5.538 4.465 8.316 5.193 1.705 0.441 4.599 0.575 6.362 0.287 5.768-0.92 9.945-4.656 12.206-10.96 0.192-0.517 0.479-0.958 0.69-1.016 0.479-0.153 0.594-0.537 0.364-1.284-0.115-0.345-0.268-1.629-0.364-2.836-0.383-4.886-2.549-9.485-5.614-11.88-0.556-0.422-0.862-0.805-0.843-1.054 0.019-0.23-0.096-0.402-0.345-0.441l-0.383-0.077 0.383 0.307c0.651 0.498 0.115 0.345-1.111-0.345-0.651-0.364-2.012-0.939-3.008-1.284-1.61-0.537-2.108-0.613-4.311-0.671-1.763-0.057-2.893 0.019-3.832 0.23zM20.407 2.606c2.663 0.709 5.212 2.319 7.128 4.522 2.165 2.491 3.123 4.714 3.277 7.646 0.249 4.886-2.012 9.696-5.768 12.283-2.874 1.954-5.538 2.836-8.642 2.836-3.602 0-6.63-1.131-9.14-3.392-1.15-1.035-3.43-4.158-4.062-5.557-0.613-1.36-1.092-3.392-1.092-4.618 0-2.050 0.862-4.752 2.146-6.764 2.568-3.966 6.17-6.496 10.347-7.262 1.341-0.23 4.369-0.077 5.806 0.307z"></path>
<path d="M21.269 8.584c-1.935 0.939-2.165 3.986-0.345 4.618 1.073 0.383 1.514 0.268 2.376-0.632s1.15-1.686 0.939-2.587c-0.268-1.207-1.82-1.954-2.97-1.399z"></path>
<path d="M9.428 8.987c-0.92 0.92-1.245 1.801-0.996 2.683 0.307 1.15 1.073 1.744 2.204 1.744 0.939 0 2.395-1.744 2.395-2.893 0-0.652-0.556-1.629-1.073-1.878-0.901-0.402-1.916-0.268-2.529 0.345z"></path>
<path d="M14.007 17.916c-0.671 0.153-1.878 0.594-2.683 0.996-1.38 0.69-1.456 0.766-1.456 1.38 0 0.441 0.134 0.728 0.383 0.901 0.326 0.211 0.556 0.153 1.61-0.345 1.801-0.843 2.798-1.111 4.656-1.245 2.012-0.134 3.622 0.153 5.25 0.92 0.651 0.307 1.303 0.556 1.437 0.575 0.153 0 0.096 0.077-0.115 0.172-0.326 0.153-0.287 0.172 0.192 0.134 0.383-0.019 0.594-0.153 0.632-0.402 0.058-0.211 0-0.307-0.134-0.23-0.115 0.077-0.211 0-0.211-0.172 0-0.862-2.568-2.261-4.925-2.683-1.859-0.345-3.066-0.326-4.637 0z"></path>
<path d="M9.849 21.538c0.402 0.326 1.456 0.422 1.456 0.134 0-0.077-0.23-0.153-0.517-0.153-0.307 0-0.709-0.058-0.92-0.134-0.383-0.153-0.383-0.134-0.019 0.153z"></path>
<path d="M3.871 4.637c-0.134 0.134-0.23 0.402-0.211 0.613 0 0.383 0.019 0.383 0.172-0.019 0.096-0.23 0.326-0.498 0.517-0.613 0.268-0.153 0.287-0.192 0.058-0.211-0.172 0-0.402 0.096-0.537 0.23z"></path>
<path d="M0.307 18.184c-0.057 0.096-0.172 0.575-0.23 1.054-0.115 0.824-0.096 0.881 0.383 1.073 0.786 0.287 0.843 0.23 0.249-0.249-0.479-0.402-0.498-0.46-0.307-1.15 0.192-0.728 0.134-1.131-0.096-0.728z"></path>
<path d="M31.885 20.426c-0.326 0.268-0.326 0.287-0.019 0.192 0.192-0.058 0.441-0.115 0.537-0.115s0.172-0.096 0.172-0.192c0-0.268-0.249-0.23-0.69 0.115z"></path>
</symbol>
<symbol id="icon-e4" viewBox="0 0 33 32">
<path d="M13.432 0.383c-2.625 0.556-5.212 1.763-7.147 3.315-0.671 0.556-1.399 1.092-1.61 1.207-0.192 0.115-0.402 0.383-0.441 0.575s-0.326 0.728-0.632 1.188c-1.418 2.050-2.223 4.848-2.376 8.182-0.077 1.265-0.23 2.759-0.364 3.315-0.287 1.15-0.23 1.495 0.287 1.667 0.23 0.077 0.498 0.575 0.766 1.495 0.594 1.974 1.36 3.526 2.242 4.656 0.958 1.188 3.277 3.085 4.925 4.005 5.308 2.951 12.072 2.587 16.709-0.939 2.127-1.59 4.426-4.829 5.269-7.377 0.268-0.786 0.632-1.437 0.996-1.782l0.594-0.517-0.326-1.399c-0.192-0.766-0.326-1.897-0.326-2.491 0-2.146-0.824-4.963-2.242-7.684-0.517-0.996-1.226-1.878-2.51-3.162-1.552-1.533-2.031-1.897-3.737-2.721-1.073-0.517-2.472-1.073-3.104-1.246-1.341-0.364-5.71-0.556-6.975-0.287zM20.407 2.587c1.61 0.402 4.005 1.629 5.365 2.721 2.223 1.801 4.139 4.656 4.79 7.147 1.303 4.925-1.054 11.516-5.135 14.39-2.989 2.108-5.787 3.047-9.044 3.047-4.369 0-7.837-1.667-10.616-5.116-2.472-3.066-3.468-5.519-3.468-8.489 0-3.411 1.322-6.381 4.196-9.447 2.434-2.568 5.078-4.024 8.354-4.56 1.303-0.211 4.158-0.058 5.557 0.307z"></path>
<path d="M10.443 8.393c-0.479 0.096-1.15 0.709-1.667 1.533-0.517 0.843-0.402 2.184 0.268 2.855 1.552 1.533 4.139-0.115 3.928-2.491-0.057-0.594-0.23-1.073-0.46-1.322-0.422-0.402-1.456-0.69-2.069-0.575z"></path>
<path d="M21.748 8.393c-0.479 0.096-1.38 0.939-1.744 1.61-0.996 1.897 0.728 3.986 2.644 3.2 0.766-0.326 1.686-1.744 1.686-2.644 0-0.92-0.613-1.897-1.284-2.050-0.287-0.057-0.613-0.134-0.728-0.153-0.096-0.019-0.364 0-0.575 0.038z"></path>
<path d="M9.907 18.357c-0.364 0.383-0.441 1.475-0.134 1.667 0.115 0.077 0.153-0.134 0.077-0.517-0.096-0.556-0.077-0.594 0.134-0.249 0.747 1.245 2.376 2.453 4.177 3.085 3.142 1.111 6.649 0.115 9.102-2.625 0.766-0.824 0.862-1.552 0.249-1.667-0.23-0.058-0.69 0.307-1.36 1.054-1.667 1.82-3.89 2.683-6.074 2.338-1.092-0.172-2.146-0.728-3.545-1.878-0.517-0.441-1.169-0.901-1.456-1.035-0.307-0.115-0.537-0.287-0.537-0.364 0-0.268-0.307-0.172-0.632 0.192z"></path>
<path d="M24.163 18.453c-0.019 0.307-0.115 0.709-0.211 0.92-0.153 0.249-0.134 0.364 0 0.364 0.345 0 0.613-0.996 0.402-1.437-0.172-0.345-0.192-0.345-0.192 0.153z"></path>
<path d="M25.006 2.299c-0.058 0.096 0.019 0.192 0.172 0.192 0.172 0 0.307 0.077 0.307 0.192 0 0.096 0.096 0.192 0.192 0.192 0.326 0 0.211-0.364-0.172-0.575-0.249-0.134-0.422-0.134-0.498 0z"></path>
<path d="M3.947 4.714c-0.172 0.153-0.307 0.441-0.287 0.613 0 0.249 0.058 0.23 0.211-0.077 0.096-0.23 0.383-0.517 0.613-0.613 0.307-0.153 0.326-0.211 0.077-0.211-0.172-0.019-0.46 0.115-0.613 0.287z"></path>
<path d="M0.211 18.893c-0.249 0.977-0.115 1.303 0.613 1.495 0.422 0.096 0.422 0.096-0.038-0.249-0.402-0.307-0.441-0.441-0.326-1.245 0.172-1.131 0.038-1.131-0.249 0z"></path>
<path d="M32.077 20.407c-0.345 0.249-0.345 0.268 0.077 0.153 0.23-0.058 0.479-0.172 0.537-0.268 0.153-0.268-0.192-0.211-0.613 0.115z"></path>
</symbol>
<symbol id="icon-e2" viewBox="0 0 33 32">
<path d="M13.183 0.46c-2.778 0.632-5.040 1.763-7.396 3.679-0.575 0.46-1.092 0.843-1.169 0.843s-0.268 0.287-0.441 0.613c-0.153 0.345-0.613 1.207-0.996 1.916-1.303 2.376-1.744 4.139-2.050 8.201-0.096 1.322-0.23 2.759-0.287 3.2-0.096 0.671-0.057 0.805 0.268 0.901 0.287 0.096 0.537 0.556 0.92 1.705 0.287 0.862 0.747 2.050 1.054 2.644 1.552 3.104 5.557 6.132 9.658 7.301 1.265 0.364 1.993 0.441 4.12 0.441 3.066-0.019 4.752-0.402 7.166-1.686 3.104-1.648 6.055-5.327 7.281-9.083 0.211-0.613 0.517-1.111 0.824-1.303 0.422-0.268 0.46-0.422 0.364-1.016-0.057-0.402-0.211-1.61-0.307-2.721-0.383-3.775-1.399-6.937-3.028-9.332-1.82-2.663-5.174-5.040-8.489-6.017-1.782-0.498-5.844-0.671-7.492-0.287zM20.407 2.587c3.277 0.824 6.381 3.085 8.412 6.093 2.261 3.315 2.74 6.687 1.533 10.845-1.245 4.292-3.641 7.032-7.837 9.025-2.261 1.073-4.062 1.418-6.783 1.284-4.254-0.192-7.262-1.744-9.964-5.116-2.395-3.008-3.277-5.001-3.411-7.856-0.153-3.085 0.671-5.557 2.855-8.431 2.491-3.315 5.614-5.365 9.255-6.055 1.59-0.307 4.292-0.211 5.94 0.211z"></path>
<path d="M10.117 8.604c-0.652 0.326-1.437 1.322-1.629 2.089-0.172 0.709 0.268 1.916 0.843 2.299 0.287 0.172 0.881 0.326 1.322 0.326 0.958 0 1.59-0.498 2.184-1.744 0.345-0.69 0.383-0.939 0.211-1.571-0.383-1.36-1.725-2.012-2.932-1.399z"></path>
<path d="M21.519 8.527c-1.245 0.537-2.069 2.376-1.61 3.583 0.479 1.245 2.395 1.648 3.392 0.709 1.648-1.533 1.341-3.947-0.537-4.369-0.441-0.115-0.881-0.077-1.245 0.077z"></path>
<path d="M23.856 18.012c0.172 0.192 0.402 0.651 0.479 0.996l0.153 0.632 0.019-0.69c0.019-0.441-0.115-0.805-0.326-0.996-0.498-0.46-0.747-0.402-0.326 0.058z"></path>
<path d="M9.753 18.434c-0.192 0.345-0.172 0.383 0.096 0.287 0.211-0.096 0.307-0.019 0.307 0.23 0 0.192 0.287 0.575 0.632 0.824 1.993 1.533 5.289 2.319 8.010 1.916 1.629-0.23 4.081-1.15 4.752-1.782 0.517-0.479 0.479-1.265-0.077-1.629-0.345-0.23-0.556-0.192-1.629 0.326-3.43 1.629-6.917 1.744-9.887 0.345-0.652-0.307-1.341-0.556-1.533-0.575-0.268-0.019-0.249-0.058 0.115-0.172l0.479-0.153-0.517-0.019c-0.345-0.019-0.594 0.115-0.747 0.402z"></path>
<path d="M25.025 2.261c-0.038 0.077 0.134 0.23 0.383 0.364 0.249 0.115 0.46 0.134 0.46 0.038 0-0.23-0.728-0.594-0.843-0.402z"></path>
<path d="M3.966 4.752c-0.364 0.402-0.422 0.805-0.134 0.805 0.115 0 0.192-0.115 0.192-0.268s0.192-0.422 0.422-0.575c0.307-0.23 0.345-0.307 0.134-0.307-0.172 0-0.441 0.153-0.613 0.345z"></path>
<path d="M0.249 18.874c-0.211 0.939-0.077 1.284 0.613 1.514 0.307 0.096 0.307 0.058-0.077-0.249-0.441-0.345-0.46-0.422-0.268-1.245 0.096-0.479 0.134-0.881 0.057-0.881s-0.211 0.383-0.326 0.862z"></path>
<path d="M32.077 20.407c-0.192 0.153-0.268 0.287-0.153 0.287 0.096 0 0.364-0.134 0.575-0.287 0.192-0.153 0.268-0.287 0.153-0.287-0.096 0-0.364 0.134-0.575 0.287z"></path>
</symbol>
<symbol id="icon-e1" viewBox="0 0 33 32">
<path d="M12.8 0.575c-2.663 0.671-4.982 1.84-6.726 3.411-0.441 0.402-0.939 0.786-1.092 0.843-0.364 0.134-1.974 2.798-2.587 4.311-0.632 1.59-1.016 3.66-1.131 6.093-0.038 1.15-0.192 2.568-0.326 3.142-0.249 0.996-0.23 1.035 0.23 1.437 0.307 0.249 0.671 0.977 1.016 2.031 0.786 2.376 1.303 3.296 2.74 4.81 2.165 2.299 4.905 3.966 7.856 4.81 1.207 0.345 1.993 0.422 4.081 0.441 3.047 0 4.656-0.383 7.166-1.686 2.932-1.495 5.768-4.905 7.128-8.546 0.422-1.131 0.747-1.686 1.035-1.82 0.364-0.153 0.402-0.307 0.307-0.958-0.057-0.441-0.192-1.782-0.307-3.008-0.23-2.702-0.862-5.020-2.050-7.454-0.747-1.59-1.111-2.050-2.721-3.641-1.897-1.878-3.008-2.625-5.231-3.507-2.836-1.131-6.515-1.418-9.389-0.709zM20.465 2.587c2.606 0.671 4.829 2.012 6.783 4.101 2.721 2.893 3.698 5.25 3.698 8.834-0.019 2.663-0.46 4.407-1.725 6.879-1.475 2.836-3.334 4.56-6.63 6.151-3.871 1.859-8.469 1.82-12.359-0.115-3.258-1.61-6.783-6.074-7.646-9.677-0.977-4.177 0.632-8.623 4.503-12.436 2.184-2.146 4.56-3.411 7.377-3.947 1.59-0.307 4.407-0.211 5.998 0.211z"></path>
<path d="M10.194 8.546c-0.671 0.268-1.514 1.418-1.686 2.299-0.383 1.897 1.897 3.296 3.372 2.069 0.862-0.728 1.399-1.897 1.245-2.683-0.249-1.38-1.686-2.223-2.932-1.686z"></path>
<path d="M21.48 8.546c-0.671 0.287-1.744 1.82-1.744 2.51 0 0.881 0.537 1.782 1.226 2.069 1.016 0.422 1.552 0.345 2.299-0.287 0.92-0.805 1.38-2.050 1.092-2.932-0.422-1.245-1.705-1.859-2.874-1.36z"></path>
<path d="M11.305 18.625c-1.514 0.192-2.395 0.594-2.223 1.016 0.057 0.153 0 0.307-0.134 0.364-0.153 0.058-0.115 0.192 0.134 0.383 0.211 0.172 0.422 0.249 0.479 0.192s0-0.153-0.115-0.23c-0.115-0.077 3.2-0.153 7.377-0.192s7.645-0.096 7.741-0.153c0.077-0.058 0.153-0.287 0.153-0.517 0-0.345 0.038-0.364 0.211-0.134 0.153 0.249 0.192 0.23 0.134-0.077-0.038-0.211-0.23-0.402-0.441-0.46-1.648-0.383-10.769-0.517-13.317-0.192z"></path>
<path d="M25.102 2.242c0 0.096 0.172 0.268 0.383 0.402s0.383 0.153 0.383 0.038c0-0.096-0.172-0.268-0.383-0.383s-0.383-0.134-0.383-0.058z"></path>
<path d="M3.947 4.829c-0.345 0.498-0.383 0.728-0.115 0.728 0.115 0 0.192-0.115 0.192-0.268s0.192-0.422 0.422-0.575c0.345-0.249 0.364-0.307 0.115-0.307-0.172 0-0.46 0.192-0.613 0.422z"></path>
<path d="M0.383 18.472c-0.364 0.958-0.249 1.629 0.307 1.84 0.709 0.268 0.824 0.211 0.23-0.115-0.594-0.307-0.632-0.441-0.345-1.399 0.23-0.805 0.096-1.035-0.192-0.326z"></path>
<path d="M32.077 20.426c-0.326 0.268-0.326 0.287-0.019 0.192 0.192-0.058 0.441-0.115 0.537-0.115s0.172-0.096 0.172-0.192c0-0.268-0.249-0.23-0.69 0.115z"></path>
</symbol>
<symbol id="icon-health-10" viewBox="0 0 25 32">
<path d="M3.489 1.301c-0.723 0.619-1.714 1.548-2.188 2.065-1.094 1.197-1.156 1.92-0.268 3.592 0.372 0.702 0.619 1.466 0.619 1.941 0 0.413-0.268 2.23-0.619 4.005-1.28 6.689-0.599 10.777 2.333 13.874 3.055 3.241 8.031 3.551 12.594 0.805l1.156-0.702 0.846 1.115c1.383 1.837 4.026 3.551 6.049 3.902 0.97 0.186 0.991-0.041 0.041-1.466-1.383-2.085-2.374-5.141-2.374-7.35 0-0.661-0.062-1.197-0.124-1.197-0.083 0-0.929 0.743-1.899 1.672-2.126 2.023-4.191 3.51-6.173 4.459-1.899 0.908-4.067 1.135-5.946 0.578-2.292-0.64-4.418-3.468-5.368-7.123-0.557-2.106-0.661-7.659-0.206-10.199 0.434-2.354 0.33-3.221-0.537-4.872-0.578-1.135-0.599-1.239-0.33-1.796 0.33-0.619 2.312-2.581 3.386-3.324 0.351-0.248 0.867-0.454 1.156-0.454 0.661 0 1.528 0.991 1.714 1.961 0.206 1.115-0.103 1.239-0.764 0.31-0.578-0.805-1.012-1.053-1.012-0.599 0 0.124 0.186 0.454 0.413 0.743 0.846 1.074 0.33 1.507-0.557 0.475-0.929-1.115-1.259-0.661-0.351 0.516 0.702 0.929 0.268 1.135-0.475 0.206-0.537-0.661-1.094-0.95-1.094-0.557 0 0.083 0.227 0.475 0.516 0.867 0.537 0.743 0.495 1.259-0.083 0.743-0.454-0.413-0.64-0.413-0.64-0.021 0 0.64 0.846 0.908 2.147 0.702 0.681-0.103 1.321-0.268 1.425-0.33 0.124-0.083 0.165 0.021 0.083 0.227s-0.145 0.392-0.145 0.434c0 0.041-0.434 0.268-0.95 0.495-0.557 0.248-0.888 0.516-0.805 0.64s0.248 0.186 0.392 0.145c0.145-0.062 0.227 0.289 0.248 1.115 0 0.991 0.124 1.383 0.764 2.415 1.404 2.292 1.714 3.84 1.28 6.689-0.351 2.23-0.372 3.055-0.124 3.055 0.103 0 0.578-0.661 1.053-1.445 1.652-2.787 3.014-3.881 5.12-4.067 1.486-0.145 1.961 0.103 2.519 1.197 0.351 0.661 0.413 1.135 0.372 2.354-0.083 2.209 0.206 2.354 1.28 0.64 0.475-0.743 1.383-1.837 2.023-2.415 1.115-0.97 3.695-2.457 4.294-2.457 0.351 0 0.372-0.33 0.062-0.537-0.33-0.186-3.427 1.404-4.48 2.292l-0.888 0.764-0.97-0.908c-2.271-2.126-5.326-2.085-7.783 0.062-0.681 0.599-0.723 0.619-0.723 0.206 0-0.826-0.846-3.014-1.755-4.459-1.321-2.168-1.548-2.684-1.548-3.613 0-0.681 0.124-0.97 0.599-1.404 0.578-0.537 1.032-1.714 1.032-2.622 0-0.227 0.062-0.681 0.145-0.991 0.186-0.785-0.413-2.271-1.177-2.932-1.012-0.826-1.734-0.702-3.303 0.578z"></path>
<path d="M6.854 7.825c0.041 0.145 0.145 0.248 0.227 0.248 0.248-0.021 0.186-0.31-0.062-0.413-0.145-0.041-0.227 0.041-0.165 0.165z"></path>
<path d="M0.103 10.942c-0.062 0.103 0.021 0.206 0.186 0.206 0.186 0 0.33-0.103 0.33-0.206 0-0.124-0.083-0.206-0.186-0.206-0.124 0-0.268 0.083-0.33 0.206z"></path>
<path d="M8.96 13.874c0.268 0.599 0.537 1.28 0.619 1.486 0.103 0.289 0.206 0.33 0.351 0.186 0.434-0.434-0.557-2.746-1.156-2.746-0.227 0-0.186 0.227 0.186 1.074z"></path>
<path d="M18.994 16.103c0 0.103 0.103 0.206 0.206 0.206 0.124 0 0.206-0.103 0.206-0.206 0-0.124-0.083-0.206-0.206-0.206-0.103 0-0.206 0.083-0.206 0.206z"></path>
<path d="M1.982 27.231c-0.145 0.227 2.065 2.333 2.911 2.787 0.846 0.434 1.879 0.454 1.528 0.041-0.124-0.145-0.495-0.33-0.826-0.392-0.351-0.083-1.197-0.681-1.941-1.383-1.383-1.28-1.486-1.363-1.672-1.053z"></path>
<path d="M15.959 28.263c-0.495 0.413-0.888 0.826-0.888 0.908 0 0.289 0.578 0.145 1.115-0.289l0.578-0.454 0.723 0.764c1.342 1.383 1.528 0.743 0.206-0.743l-0.867-0.95-0.867 0.764z"></path>
</symbol>
<symbol id="icon-health-11" viewBox="0 0 26 32">
<path d="M18.924 0.36c-0.148 0.042-0.276 0.233-0.276 0.403 0 0.36-0.064 0.339 0.784 0.106 0.403-0.127 1.017-0.106 1.568 0 1.081 0.254 1.653-0.085 0.742-0.445-0.593-0.212-2.352-0.276-2.819-0.064z"></path>
<path d="M23.777 0.827c0.042 0.148 0.148 0.254 0.233 0.254 0.254-0.021 0.191-0.318-0.064-0.424-0.148-0.042-0.233 0.042-0.17 0.17z"></path>
<path d="M18.585 1.886c-1.123 0.996-1.293 1.738-0.975 4.366 0.297 2.564 0.148 5.87-0.318 7.375-0.17 0.572-0.784 1.759-1.377 2.649-1.335 2.034-1.717 2.967-1.717 4.111 0 2.755 3.009 4.281 5.192 2.628 0.975-0.742 1.272-1.25 3.984-6.485 2.437-4.726 2.903-5.997 2.903-7.862 0-3.306-3.030-7.121-5.828-7.354-0.996-0.085-1.166-0.021-1.865 0.572zM22.76 5.107c1.759 0.932 2.564 1.505 2.691 1.865 0.106 0.276 0.17 0.53 0.148 0.572-0.042 0.021-1.060-0.509-2.289-1.187-1.314-0.742-2.373-1.208-2.607-1.144-0.212 0.064-0.424-0.021-0.487-0.233-0.085-0.17-0.551-0.572-1.060-0.869-0.869-0.509-1.123-0.89-0.784-1.208 0.064-0.085 0.53 0.085 0.996 0.339 0.487 0.276 1.992 1.123 3.391 1.865zM25.642 9.473c0 0.275-0.064 0.487-0.127 0.487-0.297 0-7.29-3.857-7.29-4.027 0-0.106-0.064-0.339-0.127-0.53-0.085-0.212 1.293 0.381 3.687 1.632 3.242 1.674 3.857 2.034 3.857 2.437zM21.891 9.727c2.861 1.611 3.454 2.119 2.903 2.458-0.106 0.064-1.589-0.678-3.264-1.632-2.585-1.483-3.094-1.844-3.094-2.246 0-0.615-0.297-0.742 3.454 1.42zM20.026 11.444c0.17 0 0.318 0.085 0.318 0.191s0.784 0.615 1.717 1.123c0.954 0.509 1.759 1.017 1.801 1.123 0.064 0.127-0.487 1.335-1.187 2.713l-1.293 2.479-0.636-0.318c-0.339-0.191-0.721-0.276-0.826-0.212-0.127 0.085-0.276-0.021-0.339-0.212-0.085-0.17-0.721-0.678-1.441-1.081-0.699-0.424-1.314-0.784-1.356-0.826s0.17-0.53 0.466-1.123c0.509-1.017 0.805-2.056 1.081-3.709l0.127-0.784 0.615 0.318c0.339 0.17 0.763 0.318 0.954 0.318z"></path>
<path d="M4.62 7.354c-0.212 0.042-0.381 0.212-0.381 0.339 0 0.17 0.551 0.254 1.801 0.254 0.996 0 1.801-0.042 1.801-0.127 0-0.53-1.928-0.805-3.221-0.466z"></path>
<path d="M2.119 7.947c0 0.191 0.106 0.318 0.233 0.275s0.233-0.17 0.233-0.276c0-0.106-0.106-0.233-0.233-0.276s-0.233 0.085-0.233 0.276z"></path>
<path d="M13.224 8.138c-0.318 0.509-0.318 0.593 0 1.102 0.721 1.081 2.331 0.191 1.759-0.975-0.381-0.763-1.293-0.827-1.759-0.127z"></path>
<path d="M4.217 8.858c-2.204 1.42-3.921 4.005-4.154 6.252-0.191 1.95 0.254 3.327 2.628 7.968 2.585 5.044 3.497 6.506 4.493 7.163 1.928 1.293 4.726-0.064 5.044-2.416 0.148-1.144-0.191-2.077-1.462-4.026-0.593-0.911-1.272-2.098-1.483-2.649-0.636-1.674-0.805-4.154-0.53-7.523 0.212-2.713 0.191-3.094-0.127-3.772-0.763-1.611-2.734-2.056-4.408-0.996zM8.053 10.342c0 0.233-0.339 0.551-0.954 0.848-0.551 0.254-0.954 0.615-0.954 0.805 0 0.233-0.106 0.297-0.339 0.212-0.212-0.085-1.229 0.339-2.564 1.060-1.208 0.657-2.268 1.144-2.331 1.081-0.318-0.339 0.657-1.060 3.475-2.628 1.717-0.954 3.264-1.738 3.412-1.738 0.127-0.021 0.254 0.148 0.254 0.36zM8.265 12.588c0 0.424-0.17 0.53-3.899 2.564-2.564 1.399-3.412 1.759-3.539 1.547-0.106-0.148-0.17-0.36-0.127-0.445 0.042-0.17 7.099-3.921 7.417-3.942 0.085-0.021 0.148 0.106 0.148 0.275zM7.968 15.174c-0.064 0.191-0.127 0.403-0.127 0.509 0 0.085-1.399 0.954-3.094 1.928-2.458 1.377-3.136 1.674-3.285 1.441-0.085-0.17-0.085-0.381 0-0.466 0.254-0.254 6.23-3.709 6.464-3.73 0.085-0.021 0.106 0.127 0.042 0.318zM8.286 20.132c0.127 0.636 0.466 1.589 0.742 2.098s0.509 0.996 0.509 1.102c0 0.085-0.615 0.509-1.377 0.932s-1.377 0.932-1.377 1.102c0 0.212-0.127 0.276-0.339 0.191-0.191-0.085-0.593 0.021-0.869 0.212-0.297 0.17-0.551 0.297-0.572 0.254-0.106-0.127-2.67-5.044-2.67-5.107 0-0.021 0.805-0.487 1.801-0.996 0.996-0.53 1.801-1.081 1.801-1.229 0-0.127 0.212-0.254 0.487-0.254 0.254-0.021 0.699-0.148 0.996-0.318 0.509-0.276 0.53-0.254 0.572 0.276 0.042 0.318 0.17 1.102 0.297 1.738z"></path>
<path d="M14.326 12.249c-0.064 0.127-0.021 0.297 0.106 0.36 0.318 0.212 0.53-0.064 0.254-0.339-0.148-0.148-0.275-0.148-0.36-0.021z"></path>
<path d="M11.613 14.856c-0.53 0.297-0.487 1.314 0.064 1.801 0.403 0.36 0.487 0.36 0.996 0.064 0.678-0.36 0.848-1.25 0.36-1.759-0.403-0.381-0.89-0.424-1.42-0.106z"></path>
<path d="M25.43 18.013c0 0.106 0.148 0.212 0.318 0.212s0.318-0.106 0.318-0.212c0-0.127-0.148-0.212-0.318-0.212s-0.318 0.085-0.318 0.212z"></path>
<path d="M11.571 19.221c-0.233 0.233-0.127 0.487 0.191 0.487 0.17 0 0.318-0.085 0.318-0.191 0-0.276-0.339-0.466-0.509-0.297z"></path>
<path d="M19.454 23.672c-0.212 0.191-0.763 0.403-1.25 0.466-1.187 0.17-1.377 0.657-0.233 0.657 1.166 0 2.819-1.166 2.013-1.42-0.106-0.042-0.339 0.085-0.53 0.297z"></path>
<path d="M0.424 25.113c0 0.191 0.106 0.318 0.233 0.276s0.233-0.17 0.233-0.276c0-0.106-0.106-0.233-0.233-0.276s-0.233 0.085-0.233 0.276z"></path>
<path d="M6.061 30.495c-0.191 0.318 1.038 1.229 1.865 1.377 1.25 0.233 1.717-0.36 0.509-0.615-0.381-0.085-1.017-0.339-1.399-0.551-0.805-0.466-0.827-0.466-0.975-0.212z"></path>
</symbol>
<symbol id="icon-health-12" viewBox="0 0 32 32">
<path d="M13.26 0.329c-3.485 0.636-6.51 2.323-8.942 4.931-4.603 4.975-5.458 12.274-2.17 18.455l0.789 1.49-0.811 0.833c-0.942 0.964-1.052 1.863-0.351 2.762 0.789 0.986 1.205 0.767 4.142-2.17 2.367-2.367 2.827-2.74 3.441-2.74 0.767 0 1.381-0.636 1.381-1.425 0-0.658 7.759-8.351 8.329-8.263 0.307 0.044 0.438-0.044 0.438-0.351 0-0.263 2.016-2.389 5.37-5.677 3.616-3.551 5.37-5.392 5.37-5.699 0-0.57-1.184-1.6-1.841-1.6-0.285 0-0.855 0.373-1.337 0.899-1.381 1.403-1.468 1.425-2.937 0.526-2.192-1.359-5.677-2.323-8.241-2.279-0.592 0-1.775 0.153-2.63 0.307zM19.66 1.447c1.403 0.307 4.296 1.622 4.559 2.082 0.088 0.131 0.044 0.351-0.088 0.482-0.175 0.175-0.614 0.044-1.666-0.46-5.611-2.805-11.945-1.797-16.351 2.608-1.315 1.293-1.885 2.060-2.564 3.507-1.162 2.411-1.688 4.931-1.49 7.364 0.131 1.666 0.11 1.797-0.241 1.666-0.219-0.088-0.46-0.241-0.548-0.373-0.285-0.416-0.175-4.362 0.153-5.83 1.162-4.888 5.216-9.249 10.126-10.827 2.411-0.789 5.238-0.877 8.11-0.219zM19.156 3.288c0.942 0.241 2.279 0.745 3.003 1.14l1.315 0.701-2.038 2.016c-1.118 1.118-5.041 4.953-8.723 8.504-6.269 6.071-6.729 6.488-7.474 6.488s-0.833-0.066-1.249-1.052c-0.241-0.57-0.57-1.468-0.701-2.016-0.373-1.337-0.395-4.647-0.022-6.137 0.701-2.959 2.827-6.027 5.37-7.781 0.679-0.46 1.249-0.789 1.293-0.745 0.022 0.044 0.153 0.285 0.285 0.526 0.329 0.614 1.425 0.679 1.929 0.131 0.373-0.416 0.395-0.482 0.044-0.986-0.351-0.548-0.351-0.548 0.482-0.767 2.192-0.57 4.34-0.57 6.488-0.022zM11.595 4.23c0.285 0.351 0.11 0.592-0.46 0.592-0.438 0-0.46-0.022-0.263-0.526 0.153-0.438 0.395-0.438 0.723-0.066z"></path>
<path d="M6.575 15.781c0 0.11 0.11 0.219 0.219 0.219 0.131 0 0.219-0.11 0.219-0.219 0-0.132-0.088-0.219-0.219-0.219-0.11 0-0.219 0.088-0.219 0.219z"></path>
<path d="M27.025 6.597l-0.899 0.921 0.855 1.293c1.14 1.775 1.732 3.419 2.016 5.677 0.789 6.247-3.463 12.493-9.622 14.115-1.666 0.438-5.063 0.438-6.729 0-1.512-0.395-3.551-1.403-4.515-2.214l-0.723-0.592-2.016 2.016 0.548 0.46c1.074 0.921 3.419 2.192 5.129 2.762 2.499 0.855 6.071 0.986 8.679 0.329 4.559-1.14 8.197-3.989 10.367-8.11 2.060-3.945 2.345-8.504 0.789-12.756-0.592-1.622-2.433-4.8-2.784-4.8-0.11 0-0.592 0.416-1.096 0.899zM29.501 9.534c1.184 2.477 1.468 3.967 1.359 7.014-0.088 2.104-0.219 2.959-0.679 4.23-1.008 2.871-2.915 5.501-5.216 7.189-1.008 0.745-1.14 0.789-1.468 0.46-0.197-0.197-0.307-0.395-0.241-0.438 4.34-3.069 6.422-6.553 6.707-11.222 0.153-2.63-0.307-4.712-1.556-7.211-0.789-1.556-0.942-2.038-0.745-2.279 0.219-0.263 0.329-0.219 0.701 0.197 0.219 0.285 0.745 1.205 1.14 2.060zM22.049 29.545c-0.526 0.11-1.118-0.416-0.745-0.636 0.153-0.11 0.438-0.022 0.679 0.197 0.373 0.329 0.373 0.373 0.066 0.438z"></path>
<path d="M20.493 17.249c-0.153 0.416 0.636 1.249 1.052 1.096 0.395-0.131 0.679-0.723 0.526-1.118-0.197-0.482-1.381-0.46-1.578 0.022zM21.479 17.534c0 0.11-0.044 0.219-0.088 0.219-0.066 0-0.175-0.11-0.241-0.219-0.066-0.131-0.022-0.219 0.088-0.219 0.131 0 0.241 0.088 0.241 0.219z"></path>
<path d="M24.767 18.301c0 0.197 0.11 0.329 0.241 0.285s0.241-0.175 0.241-0.285c0-0.11-0.11-0.241-0.241-0.285s-0.241 0.088-0.241 0.285z"></path>
</symbol>
<symbol id="icon-health-13" viewBox="0 0 54 32">
<path d="M18.75 0.45c-1.35 2.25 9.95 11.050 19.1 14.85l2.9 1.2-4.5-0.050c-2.45 0-7.75-0.2-11.75-0.4-4.6-0.25-7.5-0.2-7.9 0.1-0.45 0.35-0.85 0.3-1.2-0.050-0.85-0.85-13.5-0.8-14.3 0-0.85 0.85-0.75 1.9 0.15 1.9 0.45 0 1 0.6 1.3 1.3l0.5 1.35 6.6-0.35c3.65-0.15 7.75-0.45 9.1-0.55 1.4-0.15 7.1-0.15 12.75 0.050l10.2 0.3-2.2 1.95c-3.35 2.9-7.45 4.85-12.6 6-5.95 1.35-7.3 2.35-4.75 3.5 0.85 0.4 2.6 0.050 8.1-1.55 8.65-2.5 11.75-3.7 15.25-5.9 3.8-2.4 8.15-6.15 7.65-6.65-0.55-0.55-13.3-4.95-14.3-4.95-0.45 0-1-0.3-1.2-0.65-0.7-1.25-17.15-11.85-18.3-11.85-0.15 0-0.4 0.2-0.6 0.45z"></path>
<path d="M0.6 19.050c0.1 0.3 0.4 0.5 0.65 0.5s0.55-0.2 0.65-0.5c0.1-0.3-0.2-0.55-0.65-0.55s-0.75 0.25-0.65 0.55z"></path>
</symbol>
<symbol id="icon-health-9" viewBox="0 0 40 32">
<path d="M9.96 0.663l-0.435 0.473h-3.825c-4.241 0-4.658 0.095-5.321 1.193-0.36 0.587-0.379 1.022-0.379 11.115 0 8.729 0.057 10.717 0.284 11.607 0.795 3.086 3.049 5.491 5.983 6.4 1.098 0.341 1.969 0.36 16.322 0.36 14.902 0 15.205 0 15.811-0.379 1.212-0.738 1.174-0.341 1.174-14.959s0.038-14.22-1.174-14.959c-0.568-0.341-0.947-0.379-4.525-0.379h-3.901l-0.871-0.947h-18.708l-0.435 0.473zM13.444 0.644c0 0.379-0.36 0.587-0.606 0.341-0.114-0.114-0.133-0.284-0.076-0.398 0.189-0.303 0.682-0.246 0.682 0.057zM26.793 0.757c0 0.151-0.151 0.303-0.322 0.341-0.246 0.038-0.341-0.057-0.341-0.341s0.095-0.379 0.341-0.341c0.17 0.038 0.322 0.189 0.322 0.341zM38.419 2.575c0.341 0.436 0.398 0.776 0.398 2.253v1.742l-9.221 0.114c-5.093 0.076-13.614 0.189-18.935 0.265l-9.714 0.114v-1.685c0-2.291 0.322-2.973 1.515-3.124 0.473-0.057 8.672-0.133 18.215-0.133l17.363-0.038 0.379 0.492zM34.84 7.366c-0.151 0.095-0.776 0.265-1.363 0.379-0.852 0.189-1.25 0.17-1.893-0.019l-0.814-0.246 1.515-0.114c2.537-0.17 2.859-0.17 2.556 0zM38.817 18.537v11.342l-0.985 1.174h-15.186c-16.985 0-16.17 0.057-18.291-1.344-1.42-0.966-2.31-2.215-2.935-4.204-0.473-1.477-0.473-1.496-0.473-9.524v-8.028h0.909c0.492 0 4.525-0.095 8.975-0.189l8.085-0.189 1.912 0.852c1.041 0.473 1.988 0.852 2.083 0.852 0.114 0 0.53-0.17 0.928-0.379l0.738-0.36 0.852 0.644c0.473 0.36 0.947 0.663 1.041 0.663 0.114 0 0.436-0.379 0.738-0.852 0.322-0.511 0.625-0.814 0.776-0.757 0.606 0.227 1.685 0.303 2.102 0.133 0.322-0.114 0.757-0.076 1.325 0.095 1.060 0.322 2.443 0.114 4.45-0.701 0.738-0.303 1.704-0.549 2.159-0.549l0.795-0.019v11.342zM27.361 7.536c-0.114 0.076-0.398 0.417-0.644 0.757l-0.417 0.606-0.852-0.606-0.833-0.606-1.78 0.871-0.947-0.454-0.947-0.436 1.799-0.114c2.859-0.17 4.828-0.17 4.62-0.019zM29.974 7.612c-0.303 0.151-0.682 0.151-1.231 0.019l-0.814-0.208h1.231c1.004-0.019 1.155 0.019 0.814 0.189z"></path>
<path d="M6.665 11.304l-0.038 1.931-2.215 0.076-2.234 0.057 4.45 0.076v5.851l-1.647 0.076-1.666 0.057 3.314 0.076v5.87h-1.079c-0.587 0-1.022 0.038-0.966 0.114 0.057 0.057 1.988 0.095 4.298 0.076h4.185l0.019 1.742c0.038 1.969 0.303 1.515 0.341-0.568l0.019-1.174h3.011c2.727 0 3.030 0.038 3.105 0.322 0.076 0.322 0.095 0.322 0.114 0 0.019-0.284 0.303-0.322 3.143-0.322h3.124l0.019 0.606c0.019 0.341 0.095 1.553 0.17 2.708l0.133 2.083 0.019-2.689 0.038-2.708 5.927-0.057 5.908-0.038-5.908-0.057-5.927-0.038v-5.87h6.23l0.076 1.553 0.057 1.572 0.076-3.105 1.666-0.076 1.647-0.057-3.314-0.076v-5.851l2.234-0.076 2.215-0.057-4.431-0.076-0.076-1.666-0.057-1.647-0.038 1.647-0.038 1.666h-6.23l-0.076-1.666-0.057-1.647-0.038 1.647-0.038 1.666h-3.124c-3.105 0-3.124 0-3.124-0.435 0-0.227-0.095-0.549-0.189-0.701-0.133-0.208-0.189-0.095-0.189 0.417v0.72h-12.478l-0.095-0.814c-0.076-0.435-0.151-1.306-0.17-1.931-0.038-0.663-0.076-0.341-0.095 0.795zM19.503 16.379v2.935h-6.002l-0.189-2.045-0.189-2.026-0.019 2.026-0.038 2.045h-6.059v-5.87h12.497v2.935zM26.13 14.239c0 0.454-0.057 1.78-0.133 2.935l-0.114 2.14h-6.002v-5.87h6.249v0.795zM32.568 16.379v2.935h-6.249v-5.87h6.249v2.935zM13.065 22.438v2.935h-6.305l0.133-1.004c0.057-0.53 0.114-1.856 0.114-2.935v-1.931h6.059v2.935zM19.503 22.438v2.935h-6.059v-5.87h6.059v2.935zM25.941 22.438v2.935h-6.154l0.114-5.87h6.040v2.935z"></path>
<path d="M8.047 14.959c-0.076 0.114 0.189 0.492 0.587 0.833l0.72 0.625-0.511 0.663c-0.909 1.193-0.53 1.553 0.398 0.379l0.568-0.701 0.454 0.417c0.454 0.417 0.909 0.568 0.909 0.303 0-0.076-0.227-0.36-0.492-0.644l-0.492-0.53 0.398-0.511c0.398-0.511 0.53-1.023 0.265-1.023-0.095 0-0.379 0.265-0.663 0.606l-0.492 0.625-0.454-0.398c-0.871-0.757-1.060-0.871-1.193-0.644z"></path>
<path d="M30.523 26.888c-0.511 0.701-0.776 0.72-1.363 0.095-0.436-0.473-0.947-0.625-0.947-0.303 0 0.095 0.303 0.436 0.682 0.757l0.682 0.606-0.492 0.644c-0.265 0.341-0.492 0.72-0.492 0.833 0 0.398 0.36 0.208 0.852-0.454l0.511-0.644 0.606 0.454c0.701 0.53 0.871 0.587 0.871 0.227 0-0.133-0.265-0.436-0.568-0.682l-0.587-0.417 0.492-0.568c0.454-0.568 0.625-1.117 0.322-1.117-0.095 0-0.341 0.246-0.568 0.568z"></path>
</symbol>
<symbol id="icon-health-6" viewBox="0 0 25 32">
<path d="M3.489 1.301c-0.723 0.619-1.714 1.548-2.188 2.065-1.094 1.197-1.156 1.92-0.268 3.592 0.372 0.702 0.619 1.466 0.619 1.941 0 0.413-0.268 2.23-0.619 4.005-1.28 6.689-0.599 10.777 2.333 13.874 3.055 3.241 8.031 3.551 12.594 0.805l1.156-0.702 0.846 1.115c1.383 1.837 4.026 3.551 6.049 3.902 0.97 0.186 0.991-0.041 0.041-1.466-1.383-2.085-2.374-5.141-2.374-7.35 0-0.661-0.062-1.197-0.124-1.197-0.083 0-0.929 0.743-1.899 1.672-2.126 2.023-4.191 3.51-6.173 4.459-1.899 0.908-4.067 1.135-5.946 0.578-2.292-0.64-4.418-3.468-5.368-7.123-0.557-2.106-0.661-7.659-0.206-10.199 0.434-2.354 0.33-3.221-0.537-4.872-0.578-1.135-0.599-1.239-0.33-1.796 0.33-0.619 2.312-2.581 3.386-3.324 0.351-0.248 0.867-0.454 1.156-0.454 0.661 0 1.528 0.991 1.714 1.961 0.206 1.115-0.103 1.239-0.764 0.31-0.578-0.805-1.012-1.053-1.012-0.599 0 0.124 0.186 0.454 0.413 0.743 0.846 1.074 0.33 1.507-0.557 0.475-0.929-1.115-1.259-0.661-0.351 0.516 0.702 0.929 0.268 1.135-0.475 0.206-0.537-0.661-1.094-0.95-1.094-0.557 0 0.083 0.227 0.475 0.516 0.867 0.537 0.743 0.495 1.259-0.083 0.743-0.454-0.413-0.64-0.413-0.64-0.021 0 0.64 0.846 0.908 2.147 0.702 0.681-0.103 1.321-0.268 1.425-0.33 0.124-0.083 0.165 0.021 0.083 0.227s-0.145 0.392-0.145 0.434c0 0.041-0.434 0.268-0.95 0.495-0.557 0.248-0.888 0.516-0.805 0.64s0.248 0.186 0.392 0.145c0.145-0.062 0.227 0.289 0.248 1.115 0 0.991 0.124 1.383 0.764 2.415 1.404 2.292 1.714 3.84 1.28 6.689-0.351 2.23-0.372 3.055-0.124 3.055 0.103 0 0.578-0.661 1.053-1.445 1.652-2.787 3.014-3.881 5.12-4.067 1.486-0.145 1.961 0.103 2.519 1.197 0.351 0.661 0.413 1.135 0.372 2.354-0.083 2.209 0.206 2.354 1.28 0.64 0.475-0.743 1.383-1.837 2.023-2.415 1.115-0.97 3.695-2.457 4.294-2.457 0.351 0 0.372-0.33 0.062-0.537-0.33-0.186-3.427 1.404-4.48 2.292l-0.888 0.764-0.97-0.908c-2.271-2.126-5.326-2.085-7.783 0.062-0.681 0.599-0.723 0.619-0.723 0.206 0-0.826-0.846-3.014-1.755-4.459-1.321-2.168-1.548-2.684-1.548-3.613 0-0.681 0.124-0.97 0.599-1.404 0.578-0.537 1.032-1.714 1.032-2.622 0-0.227 0.062-0.681 0.145-0.991 0.186-0.785-0.413-2.271-1.177-2.932-1.012-0.826-1.734-0.702-3.303 0.578z"></path>
<path d="M6.854 7.825c0.041 0.145 0.145 0.248 0.227 0.248 0.248-0.021 0.186-0.31-0.062-0.413-0.145-0.041-0.227 0.041-0.165 0.165z"></path>
<path d="M0.103 10.942c-0.062 0.103 0.021 0.206 0.186 0.206 0.186 0 0.33-0.103 0.33-0.206 0-0.124-0.083-0.206-0.186-0.206-0.124 0-0.268 0.083-0.33 0.206z"></path>
<path d="M8.96 13.874c0.268 0.599 0.537 1.28 0.619 1.486 0.103 0.289 0.206 0.33 0.351 0.186 0.434-0.434-0.557-2.746-1.156-2.746-0.227 0-0.186 0.227 0.186 1.074z"></path>
<path d="M18.994 16.103c0 0.103 0.103 0.206 0.206 0.206 0.124 0 0.206-0.103 0.206-0.206 0-0.124-0.083-0.206-0.206-0.206-0.103 0-0.206 0.083-0.206 0.206z"></path>
<path d="M1.982 27.231c-0.145 0.227 2.065 2.333 2.911 2.787 0.846 0.434 1.879 0.454 1.528 0.041-0.124-0.145-0.495-0.33-0.826-0.392-0.351-0.083-1.197-0.681-1.941-1.383-1.383-1.28-1.486-1.363-1.672-1.053z"></path>
<path d="M15.959 28.263c-0.495 0.413-0.888 0.826-0.888 0.908 0 0.289 0.578 0.145 1.115-0.289l0.578-0.454 0.723 0.764c1.342 1.383 1.528 0.743 0.206-0.743l-0.867-0.95-0.867 0.764z"></path>
</symbol>
<symbol id="icon-health-8" viewBox="0 0 40 32">
<path d="M10.073 0.663l-0.379 0.473h-3.938c-4.582 0-4.904 0.095-5.453 1.553-0.284 0.738-0.322 1.893-0.265 11.323 0.057 10.452 0.057 10.509 0.492 11.721 0.909 2.537 2.348 4.128 4.772 5.302l1.42 0.682 31.337 0.095 0.701-0.644 0.72-0.644v-28.099l-0.701-0.644-0.72-0.644h-8.009l-0.871-0.947h-18.746l-0.36 0.473zM13.501 0.492c0.17 0.189-0.076 0.644-0.341 0.644-0.322 0-0.53-0.322-0.379-0.568 0.133-0.208 0.53-0.246 0.72-0.076zM26.888 0.757c0 0.398-0.454 0.53-0.663 0.189-0.151-0.265 0.057-0.568 0.398-0.568 0.151 0 0.265 0.17 0.265 0.379zM38.514 2.499c0.227 0.322 0.303 0.909 0.303 2.253v1.818l-9.127 0.114c-5.037 0.076-13.557 0.189-18.973 0.265l-9.827 0.114 0.095-1.78c0.095-2.291 0.435-2.954 1.553-3.067 0.436-0.038 8.634-0.076 18.234-0.095l17.458-0.038 0.284 0.417zM34.802 7.404c-0.701 0.398-2.386 0.568-3.219 0.322l-0.814-0.246 1.515-0.114c2.651-0.189 2.878-0.189 2.518 0.038zM38.817 16.284v9.089h-5.87l-0.038-0.814-0.019-0.795-0.076 0.795-0.076 0.814-3.105 0.076 1.572 0.057 1.553 0.076v5.491l-26.035-0.114-1.079-0.53c-1.893-0.928-3.503-2.708-4.033-4.45l-0.114-0.417h5.321l0.038 1.269 0.038 1.288 0.057-1.288 0.076-1.269 3.295-0.076-1.647-0.057-1.666-0.076-0.076-6.324-0.057 3.162-0.057 3.181h-5.453l-0.208-0.947c-0.133-0.606-0.208-3.863-0.208-8.71v-7.763h0.909c0.492 0 4.563-0.095 9.051-0.189l8.142-0.208 1.856 0.871c1.023 0.473 1.969 0.852 2.14 0.852s0.587-0.17 0.928-0.398l0.625-0.379 1.704 1.25v2.821c0 1.534 0.038 2.859 0.095 2.916 0.076 0.057 0.114-0.379 0.114-0.966v-1.079h6.249v5.87l-3.124 0.076 1.572 0.057 1.553 0.076 0.038 0.701 0.019 0.701 0.076-0.72 0.076-0.701 3.673-0.076-1.837-0.057-1.856-0.076v-5.851l5.207-0.076-2.594-0.057-2.613-0.076-0.076-4.431-0.057 2.215-0.076 2.234h-6.23v-1.609c0-1.553 0.019-1.647 0.682-2.575 0.398-0.549 0.795-0.909 0.947-0.852 0.625 0.227 1.534 0.303 1.95 0.151 0.322-0.114 0.776-0.076 1.382 0.114 0.814 0.227 1.079 0.227 2.291-0.057 0.757-0.17 1.837-0.511 2.405-0.757s1.401-0.454 1.856-0.454l0.795-0.019v9.089zM26.963 8.142c-0.284 0.417-0.549 0.757-0.587 0.757-0.057 0-0.417-0.265-0.814-0.568-0.852-0.682-0.985-0.682-1.837-0.17l-0.644 0.398-1.079-0.435-1.079-0.454 1.799-0.114c0.985-0.057 2.462-0.114 3.276-0.133l1.458-0.038-0.492 0.757zM30.050 7.612c-0.341 0.114-0.757 0.133-1.231 0-0.663-0.17-0.625-0.189 0.53-0.189 1.041 0 1.155 0.019 0.701 0.189zM38.817 27.834c0 2.177-0.019 2.31-0.473 2.746-0.435 0.454-0.549 0.473-2.935 0.473h-2.462v-5.491h5.87v2.272z"></path>
<path d="M19.257 15.375c-0.568 0.36-0.833 0.663-0.738 0.757 0.114 0.114 0.322 0.114 0.568-0.019 0.587-0.322 0.606-0.284 0.227 0.682-0.189 0.511-0.53 1.723-0.757 2.708s-0.492 1.969-0.568 2.177c-0.284 0.682-0.341 1.174-0.151 1.496 0.208 0.36 1.079 0.417 1.174 0.057 0.038-0.114 0.246-0.985 0.473-1.912 0.473-1.95 1.875-5.643 2.083-5.51 0.095 0.038 0.246-0.133 0.379-0.398 0.246-0.568 0.265-0.852 0.019-0.454-0.114 0.189-0.189 0.208-0.189 0.038 0-0.473-1.553-0.265-2.518 0.379z"></path>
</symbol>
<symbol id="icon-health-7" viewBox="0 0 40 32">
<path d="M9.96 0.644c-0.417 0.473-0.454 0.473-4.525 0.53l-4.109 0.057-0.606 0.625-0.625 0.606-0.057 10.831c-0.057 11.891-0.038 12.080 1.098 14.069 0.663 1.155 2.462 2.916 3.503 3.465 1.988 1.004 1.647 0.985 17.931 0.985 16.492 0 15.792 0.038 16.549-1.079 0.341-0.511 0.36-1.136 0.417-13.879 0.057-14.845 0.076-14.599-1.174-15.356-0.53-0.322-0.985-0.36-4.544-0.36h-3.938l-0.379-0.473-0.36-0.473h-18.746l-0.435 0.454zM13.349 0.757c0 0.151-0.151 0.303-0.322 0.341-0.246 0.038-0.341-0.057-0.341-0.341s0.095-0.379 0.341-0.341c0.17 0.038 0.322 0.189 0.322 0.341zM26.793 0.757c0 0.151-0.151 0.303-0.322 0.341-0.246 0.038-0.341-0.057-0.341-0.341s0.095-0.379 0.341-0.341c0.17 0.038 0.322 0.189 0.322 0.341zM38.362 2.48c0.284 0.322 0.379 0.757 0.417 2.234l0.076 1.856-9.259 0.114c-5.075 0.076-13.614 0.189-18.935 0.265l-9.714 0.114v-1.78c0-2.234 0.341-2.954 1.458-3.067 0.398-0.038 8.559-0.076 18.159-0.095l17.439-0.038 0.36 0.398zM34.651 7.404c-1.174 0.473-2.291 0.587-3.181 0.341l-0.89-0.265 1.609-0.114c0.89-0.057 1.912-0.114 2.272-0.133 0.625-0.019 0.644 0 0.189 0.17zM38.779 18.632l-0.057 11.437-0.454 0.492c-0.454 0.473-0.511 0.492-2.992 0.492h-2.518v-5.491l5.775-0.076-2.878-0.057-2.897-0.076-0.076-5.378-0.057 2.689-0.076 2.708-5.946 0.076 2.897 0.057 2.878 0.076v0.72c0 0.398 0.057 1.628 0.133 2.746l0.114 2.026-25.903-0.114-1.117-0.53c-2.253-1.060-3.484-2.499-4.279-5.037-0.36-1.117-0.379-1.742-0.379-9.316v-8.123h0.814c0.435 0 4.488-0.095 8.975-0.189l8.199-0.189 1.818 0.852c1.004 0.473 1.969 0.852 2.14 0.852 0.17-0.019 0.606-0.17 0.966-0.36l0.663-0.36 1.856 1.363 0.398-0.473c0.227-0.265 0.53-0.644 0.682-0.871 0.265-0.398 0.341-0.398 1.174-0.208 0.682 0.17 1.023 0.151 1.382 0 0.303-0.151 0.625-0.17 0.814-0.057 1.079 0.549 2.802 0.341 5.112-0.625 0.606-0.246 1.477-0.454 1.988-0.473l0.89-0.019-0.038 11.437zM26.944 7.972c-0.549 0.947-0.682 0.966-1.553 0.322l-0.795-0.587-1.78 0.833-1.041-0.473-1.023-0.473 1.875-0.076c1.041-0.019 2.518-0.076 3.276-0.095l1.382-0.038-0.341 0.587zM29.974 7.612c-0.303 0.151-0.682 0.151-1.231 0.019l-0.814-0.208h1.231c1.004-0.019 1.155 0.019 0.814 0.189z"></path>
<path d="M6.703 12.876c0 1.931 0.038 2.708 0.057 1.742 0.038-0.947 0.038-2.537 0-3.503-0.019-0.947-0.057-0.17-0.057 1.761z"></path>
<path d="M30.826 13.387c0.947 0.038 2.537 0.038 3.503 0 0.947-0.019 0.17-0.057-1.761-0.057s-2.708 0.038-1.742 0.057z"></path>
<path d="M20.885 14.523c0.17 0.038 0.436 0.038 0.568 0 0.114-0.057-0.019-0.095-0.341-0.095-0.303 0-0.417 0.038-0.227 0.095z"></path>
<path d="M19.976 14.996c-0.701 0.246-1.363 0.833-1.723 1.515-0.36 0.701-0.341 0.909 0.114 0.909 0.208 0 0.379-0.095 0.379-0.189 0-0.114 0.208-0.417 0.473-0.663 1.004-1.023 2.14-0.246 1.591 1.079-0.133 0.341-0.89 1.306-1.685 2.14-1.628 1.704-2.026 2.253-2.272 3.105l-0.17 0.587h2.178c1.212 0 2.159-0.076 2.159-0.17 0-0.265-0.53-0.398-1.856-0.417-0.644-0.019-1.174-0.095-1.174-0.189s0.151-0.095 0.341-0.038c0.265 0.114 0.284 0.076 0.095-0.17-0.208-0.246 0.057-0.568 1.723-2.102 2.007-1.875 2.765-2.954 2.765-3.995 0-0.757-0.284-1.174-0.966-1.42-0.72-0.246-1.212-0.246-1.969 0.019z"></path>
<path d="M20.393 17.609c-0.151 0.417-0.246 0.757-0.208 0.757 0.133 0 0.682-1.344 0.587-1.439-0.038-0.038-0.208 0.265-0.379 0.682z"></path>
<path d="M32.341 19.446c0.738 0.038 1.988 0.038 2.746 0 0.738-0.019 0.133-0.057-1.382-0.057s-2.121 0.038-1.363 0.057z"></path>
</symbol>
<symbol id="icon-health-14" viewBox="0 0 31 32">
<path fill="#fff" style="fill: var(--color1, #fff)" d="M0 0v13.524h0.19c0.298-6.84 7.396-13.195 14.095-13.333l-4.381-0.19h-9.905z"></path>
<path fill="#010101" style="fill: var(--color2, #010101)" d="M8.762 31.429h0.571v-0.571c8.259 2.612 17.314-0.141 20.559-8.762 0.819-2.177 0.968-4.368 0.965-6.667-0.004-2.366-0.71-4.472-1.548-6.65-0.248-0.644-0.137-1.313-0.608-1.868-3.3-3.881-7.139-6.54-12.32-6.894-10.749-0.736-18.441 9.948-15.929 19.983 0.713 2.847 2.235 5.368 4.31 7.428 1.371 1.361 3.175 2.184 4 4.001z"></path>
<path fill="#fff" style="fill: var(--color1, #fff)" d="M16.952 0v0.19c7.079 0.059 13.419 6.848 13.714 13.714h0.19v-13.905h-13.905zM13.524 2.369c-1.953 0.305-3.875 0.985-5.524 2.079-1.656 1.098-3.024 2.467-4.123 4.123-6.634 9.999 2.24 22.913 13.837 21.252 2.115-0.303 4.090-1.043 5.905-2.169 1.605-0.995 3.017-2.3 4.107-3.845 7.171-10.164-2.376-23.287-14.202-21.44z"></path>
<path fill="#010101" style="fill: var(--color2, #010101)" d="M5.905 2.476v0.571h0.381v-0.571h-0.381zM15.429 5.905h0.381l0.19-2.667c-1.078 0.358-0.839 1.76-0.571 2.667zM20.952 5.333v0zM28.19 5.905v0zM6.476 6.857c0.175 1.133 0.962 1.92 2.095 2.095-0.175-1.133-0.962-1.92-2.095-2.095zM22.857 8.952c1.133-0.175 1.92-0.962 2.095-2.095-1.133 0.175-1.92 0.962-2.095 2.095zM15.048 14.095h0.762l-0.952 4.952c1.314-0.219 2.435-4.599 2.667-5.905-1.052 0.004-1.775 0.115-2.476 0.952zM17.143 16h1.333c-0.304 1.265-0.894 2.166-2.286 2.095 0.875 2.882 5.718-2.431 1.905-2.857 0.743-1.006 1.18-1.508 2.476-1.524v-0.571c-2.152 0-3.185 0.48-3.429 2.857zM14.286 17.714c-0.264-0.857-0.922-1.181-1.714-1.524v-0.19c0.847-0.348 1.969-0.599 2.286-1.524-0.683 0.187-3.118 0.748-3.253 1.556-0.141 0.846 2.082 1.509 2.682 1.682zM2.667 16v0.19c0.938 0.501 1.919 0.501 2.857 0-0.777-0.794-1.926-0.688-2.857-0.19zM26.221 15.811c-0.77 0.646 1.561 0.965 2.034 0.568 0.77-0.646-1.561-0.965-2.034-0.568z"></path>
<path fill="#fff" style="fill: var(--color1, #fff)" d="M0 18.286v13.714h15.048v-0.19l-5.714-0.952-0.571 0.571c-0.648-2.305-3.759-3.711-5.245-5.524-1.956-2.386-2.251-4.991-3.517-7.619zM30.667 18.476c-0.311 7.134-7.308 13.329-14.286 13.333v0.19h14.476v-9.333l-0.19-4.19z"></path>
<path fill="#010101" style="fill: var(--color2, #010101)" d="M12 22.286v0zM6.476 25.333c1.133-0.175 1.92-0.962 2.095-2.095-1.133 0.175-1.92 0.962-2.095 2.095zM22.857 23.238c0.175 1.133 0.962 1.92 2.095 2.095-0.175-1.133-0.962-1.92-2.095-2.095zM15.429 26.286c-0.268 0.907-0.506 2.309 0.571 2.667l-0.19-2.667h-0.381zM20.381 27.429v0.571l0.571-0.19v-0.19l-0.571-0.19z"></path>
</symbol>
<symbol id="icon-shipping-1" viewBox="0 0 32 32">
<path fill="#212529" style="fill: var(--color1, #212529)" d="M0.128 18.086c-1.002-8.083 3.976-15.568 11.693-17.573 8.647-2.249 17.396 3.113 19.248 11.8 0.049 0.229 0.084 0.461 0.118 0.693 0.024 0.16 0.048 0.321 0.076 0.481 0.006 0.033 0.011 0.068 0.016 0.104 0.018 0.127 0.037 0.263 0.11 0.312 0.64 0.467 0.622 1.129 0.604 1.77-0.003 0.105-0.006 0.21-0.006 0.312 0.010 7.633-5.521 14.311-12.997 15.719-1.002 0.186-2.016 0.285-3.035 0.296l0.001-0.001c-7.998-0.017-14.857-6.042-15.829-13.914zM1.651 17.139c0.788 7.331 6.853 12.775 14.197 12.762l0.001-0.001c2.569 0.027 5.092-0.669 7.276-2.008 4.702-2.909 6.958-7.165 6.942-12.631-0-0.078-0.005-0.157-0.010-0.237-0.018-0.298-0.037-0.6 0.175-0.835 0.239-0.26 0.212-0.523 0.155-0.817-1.55-7.966-9.416-13.158-17.4-11.484-7.13 1.495-12.104 8.186-11.336 15.252z"></path>
<path fill="#000" style="fill: var(--color2, #000)" d="M26.424 14.351c0.124 0.198 0.204 0.421 0.233 0.652 0.007 0.074 0.010 0.149 0.008 0.224v0.498c-0.007 0.886-0.019 1.76-0.037 2.58l-0.034 1.184-0.020 0.553v0.071c-0.001 0.038-0.005 0.076-0.012 0.113-0.035 0.219-0.157 0.415-0.339 0.546-0.114 0.082-0.247 0.134-0.388 0.153-0.099 0.009-0.199 0.009-0.298 0l-0.457-0.027c-0.291-0.018-0.555-0.040-0.784-0.061h-0.015c0.017 0.151 0.010 0.303-0.020 0.452-0.039 0.182-0.107 0.357-0.203 0.518-0.244 0.399-0.639 0.687-1.099 0.802-0.263 0.066-0.537 0.077-0.804 0.030-0.422-0.076-0.807-0.289-1.091-0.604s-0.454-0.715-0.48-1.135c-1.177 0.241-3.786 0.224-4.756-0.046 0.015 0.146 0.008 0.293-0.020 0.437-0.039 0.182-0.107 0.356-0.203 0.516-0.244 0.399-0.639 0.687-1.099 0.802-0.262 0.066-0.536 0.076-0.803 0.030-0.284-0.051-0.553-0.165-0.786-0.332-0.238-0.167-0.434-0.385-0.574-0.637s-0.22-0.532-0.233-0.819l-0.508 0.022-0.356 0.013h-0.278c-0.047 0.004-0.095 0.004-0.142 0-0.155-0.023-0.299-0.089-0.417-0.19s-0.202-0.234-0.244-0.382c-0.015-0.051-0.024-0.104-0.027-0.158v-0.118l-0.022-0.843c-0.029-1.162-0.052-2.477-0.073-3.895l-0.044-4.505v-0.955c-0.001-0.163 0.033-0.325 0.1-0.475s0.166-0.285 0.29-0.395 0.269-0.195 0.428-0.247c0.080-0.026 0.162-0.044 0.245-0.053h1.766l6.71 0.023c0.23 0.019 0.45 0.104 0.63 0.245s0.315 0.331 0.385 0.547c0.023 0.070 0.039 0.143 0.047 0.216 0.004 0.063 0.004 0.126 0 0.189v0.553l-0.014-0.050v0.051c0.638-0.053 1.473-0.095 2.433-0.128 0.206-0.006 0.411 0.035 0.599 0.119s0.354 0.208 0.485 0.364c0.067 0.083 0.123 0.173 0.169 0.269 0.039 0.085 0.059 0.135 0.080 0.187 0.006 0.016 0.013 0.032 0.020 0.050l0.169 0.428 0.65 1.66 0.445 0.276 0.296 0.186c0.197 0.13 0.364 0.3 0.488 0.498zM23.017 11.072c-0.965-0.032-1.802-0.075-2.442-0.128-0.039 2.542-0.095 4.725-0.176 6.225 2.176 0.025 4.16 0.091 5.356 0.199-0.001-0.066-0.002-0.133-0.003-0.2-0.008-0.473-0.015-0.956-0.015-1.445v-0.498c0.002-0.036 0.002-0.073 0-0.11-0.014-0.102-0.049-0.201-0.104-0.288s-0.129-0.163-0.216-0.221l-0.276-0.176-0.579-0.362c-0.079-0.053-0.139-0.13-0.169-0.219l-0.655-1.826-0.152-0.435c-0.027-0.102-0.070-0.2-0.129-0.289-0.051-0.068-0.116-0.124-0.192-0.164s-0.16-0.061-0.246-0.064zM15.376 20.822c0.005-0.025 0.097-0.046 0.212-0.046 0 0 0.001-0 0.001-0 0.011-0 0.021-0 0.032 0-0 0-0.001 0-0.001 0-0.010 0-0.021 0-0.031-0-0.118-0.002-0.221-0.022-0.221-0.046-0.024-0.105-0.059-0.206-0.105-0.304-0.055-0.11-0.124-0.213-0.205-0.305-0.187-0.212-0.444-0.352-0.726-0.395-0.154-0.024-0.311-0.016-0.461 0.024s-0.29 0.109-0.411 0.205c-0.126 0.099-0.228 0.224-0.298 0.367s-0.106 0.299-0.106 0.457 0.036 0.315 0.106 0.457c0.070 0.143 0.172 0.268 0.298 0.367 0.121 0.096 0.262 0.166 0.412 0.205s0.308 0.048 0.462 0.024c0.283-0.044 0.542-0.184 0.73-0.397 0.082-0.093 0.151-0.197 0.207-0.307 0.046-0.098 0.082-0.2 0.107-0.305zM15.621 20.775c0.047 0 0.093-0.006 0.138-0.017v0.037c-0.045-0.012-0.091-0.019-0.138-0.020zM23.828 20.822c0.005-0.025 0.097-0.046 0.212-0.046 0-0 0.001-0 0.001-0-0.117-0.002-0.22-0.022-0.22-0.046-0.024-0.105-0.059-0.206-0.105-0.304-0.055-0.11-0.124-0.213-0.205-0.305-0.187-0.212-0.444-0.352-0.726-0.395-0.154-0.024-0.311-0.016-0.461 0.024s-0.29 0.109-0.411 0.205c-0.126 0.099-0.228 0.224-0.298 0.367s-0.107 0.299-0.107 0.457 0.036 0.315 0.107 0.457c0.070 0.143 0.172 0.268 0.298 0.367 0.121 0.096 0.262 0.166 0.412 0.205s0.308 0.048 0.462 0.024c0.283-0.044 0.541-0.184 0.728-0.397 0.082-0.093 0.151-0.197 0.207-0.307 0.046-0.098 0.082-0.2 0.107-0.305zM24.093 20.775c0.053 0.003 0.105 0.013 0.155 0.032-0.011-0.015-0.021-0.032-0.027-0.050-0.042 0.011-0.085 0.017-0.128 0.018zM25.796 20.236c0.019-0.020 0.033-0.044 0.041-0.070h-0.002c0.003-0.011 0.005-0.022 0.005-0.033v-0.081l-0.020-0.553-0.034-1.184c-0.010-0.146-0.010-0.297-0.010-0.446v-0c-3.158 0.287-11.869 0.284-14.948-0.012-0.010 0.466-0.020 0.915-0.031 1.341l-0.024 0.843c-0.004 0.041-0.004 0.083 0 0.124 0.005 0.027 0.015 0.052 0.030 0.075 0.015 0.025 0.035 0.047 0.059 0.064s0.051 0.030 0.080 0.037c0.016 0.002 0.032 0.002 0.047 0h0.278l0.356 0.013 0.554 0.023c0.078-0.365 0.264-0.698 0.535-0.959s0.615-0.437 0.988-0.507c0.267-0.047 0.541-0.038 0.804 0.028 0.461 0.115 0.857 0.403 1.102 0.802 0.096 0.16 0.164 0.335 0.203 0.516 0.002 0.010 0.004 0.020 0.006 0.030 0.006 0.027 0.011 0.054 0.011 0.081 0.985-0.276 3.651-0.287 4.802-0.037 0.086-0.356 0.276-0.68 0.547-0.932s0.61-0.422 0.977-0.489c0.267-0.047 0.541-0.038 0.804 0.028 0.461 0.115 0.857 0.403 1.102 0.802 0.099 0.158 0.172 0.332 0.215 0.513 0.012 0.043 0.019 0.085 0.019 0.126 0.23-0.022 0.493-0.043 0.784-0.061l0.457-0.027c0.202-0.006 0.211-0.015 0.258-0.055l0.003-0.003zM11 9.667c0 0.222 0 0.667 0.333 0.667h3.667c0.745 0 1.333 0 1-0.333-0.267-0.267-2-0.667-2.667-0.667s-2.333 0.333-2.333 0.333z"></path>
<path fill="#000" style="fill: var(--color2, #000)" d="M2.667 11.282c0.492-0.102 0.996-0.182 1.5-0.262l0.75-0.102c0.246-0.034 0.492-0.057 0.75-0.091 0.246-0.023 0.492-0.080 0.75-0.125 0.246-0.045 0.492-0.045 0.75-0.011 0.246 0.034 0.492 0.102 0.75 0.193 0.246 0.091 0.492 0.205 0.75 0.387v0.125c-0.246 0.182-0.492 0.296-0.75 0.387-0.246 0.091-0.492 0.148-0.75 0.193-0.246 0.034-0.492 0.034-0.75-0.011-0.246-0.045-0.492-0.102-0.75-0.125-0.246-0.023-0.492-0.057-0.75-0.091l-0.75-0.102c-0.504-0.057-1.008-0.125-1.5-0.227v-0.136z"></path>
<path fill="#000" style="fill: var(--color2, #000)" d="M2 14.616c0.492-0.102 0.996-0.182 1.5-0.262l0.75-0.102c0.246-0.034 0.492-0.057 0.75-0.091 0.246-0.023 0.492-0.080 0.75-0.125 0.246-0.045 0.492-0.045 0.75-0.011 0.246 0.034 0.492 0.102 0.75 0.193 0.246 0.091 0.492 0.205 0.75 0.387v0.125c-0.246 0.182-0.492 0.296-0.75 0.387-0.246 0.091-0.492 0.148-0.75 0.193-0.246 0.034-0.492 0.034-0.75-0.011-0.246-0.045-0.492-0.102-0.75-0.125-0.246-0.023-0.492-0.057-0.75-0.091l-0.75-0.102c-0.504-0.057-1.008-0.125-1.5-0.227v-0.136z"></path>
<path fill="#000" style="fill: var(--color2, #000)" d="M2.667 17.949c0.492-0.102 0.996-0.182 1.5-0.262l0.75-0.102c0.246-0.034 0.492-0.057 0.75-0.091 0.246-0.023 0.492-0.080 0.75-0.125 0.246-0.045 0.492-0.045 0.75-0.011 0.246 0.034 0.492 0.102 0.75 0.193 0.246 0.091 0.492 0.205 0.75 0.387v0.125c-0.246 0.182-0.492 0.296-0.75 0.387-0.246 0.091-0.492 0.148-0.75 0.193-0.246 0.034-0.492 0.034-0.75-0.011-0.246-0.045-0.492-0.102-0.75-0.125-0.246-0.023-0.492-0.057-0.75-0.091l-0.75-0.102c-0.504-0.057-1.008-0.125-1.5-0.227v-0.136z"></path>
</symbol>
<symbol id="icon-shipping-2" viewBox="0 0 32 32">
<path fill="#010101" style="fill: var(--color3, #010101)" d="M31.988 16.168c-0.067 8.52-6.921 15.533-15.424 15.821-8.578 0.324-15.875-6.208-16.518-14.785-0.544-7.108 3.82-13.931 10.387-16.239 6.999-2.461 14.436-0.107 18.525 5.862 0.766 1.093 1.354 2.301 1.743 3.579 0.010 0.090 0.040 0.175 0.084 0.253 1.161 1.27 0.989 2.905 1.187 4.429 0.030 0.359 0.035 0.72 0.016 1.080v0z"></path>
<path fill="#fefefe" style="fill: var(--color4, #fefefe)" d="M15.909 30.984c-6.947-0.073-12.875-5.103-14.157-12.013-1.283-6.908 2.438-13.772 8.885-16.391 7.224-2.875 15.174 0.287 18.739 7.458 0.289 0.583 0.551 1.133 0.525 1.869-0.029 0.864 0.366 1.72 0.48 2.602 1.031 7.989-4.792 15.491-12.709 16.348-0.584 0.064-1.174 0.085-1.763 0.127v-0.001z"></path>
<path fill="#000" style="fill: var(--color2, #000)" d="M5.256 9.848c0.093 0.201 0.314 0.31 0.529 0.261 0.163-0.016 0.292-0.047 0.365 0.181 0.125 0.393 0.392 0.291 0.521 0.033 0.182-0.356 0.425-0.37 0.746-0.287 0.139 0.031 0.281 0.047 0.423 0.049 0.202 0.027 0.397-0.081 0.482-0.267 0.092-0.186 0.035-0.412-0.135-0.531-0.356-0.291-0.659-0.562-0.161-1.002 0.115-0.128 0.109-0.324-0.014-0.446-0.125-0.14-0.333-0.167-0.49-0.065-0.111 0.055-0.216 0.122-0.316 0.196-0.294 0.24-0.407-0.073-0.564-0.196-0.214-0.169 0-0.283 0.104-0.376 1.25-1.124 2.678-1.612 4.33-1.102 1.236 0.356 2.376 0.992 3.33 1.859 0.754 0.705 1.638 0.874 2.607 0.874 0.405 0 0.599-0.248 0.783-0.544 0.392-0.604 0.783-1.201 1.485-1.486 0.654-0.264 1.276-0.269 1.88 0.138 0.306 0.218 0.655 0.367 1.023 0.438 0.557 0.094 1.013 0.051 1.412-0.464s1.398-0.261 2.002 0.326c2.781 2.714 3.012 6.179 2.868 9.73-0.122 2.381-0.707 4.714-1.724 6.869-0.171 0.373-0.343 0.721-0.858 0.611-0.151-0.032-0.269 0.077-0.38 0.165-0.756 0.604-1.567 0.672-2.443 0.279-1.175-0.531-2.176-0.431-3.118 0.607-0.784 0.853-1.881 1.036-3.017 0.821-0.783-0.147-1.579-0.283-2.351-0.491-1.258-0.338-2.427-0.055-3.492 0.558-0.797 0.458-1.466 0.422-2.243 0.013-2.534-1.332-4.017-3.486-4.756-6.175-1.009-3.669-0.729-7.248 0.966-10.685 0.129-0.079 0.154 0.035 0.205 0.106v0z"></path>
<path fill="#7a7a7a" style="fill: var(--color5, #7a7a7a)" d="M5.611 9.651l-0.111-0.124c0.064-0.397 0.156-0.771 0.27-1.113 0.038-0.126 0.086-0.383 0.172-0.25 0.040 0.070 0.061 0.177 0.058 0.285s-0.032 0.209-0.077 0.266c-0.152 0.234-0.318 0.451-0.312 0.934v0.001z"></path>
<path fill="#fdfdfd" style="fill: var(--color6, #fdfdfd)" d="M12.418 15.546c0.695-0.146 1.453 0.205 2.223 0.434 1.93 0.569 3.712 0.329 5.375-1.034 0.907-0.776 2.108-0.941 3.149-0.43 0.611 0.275 1.248 0.479 1.867 0.732 0.342 0.12 0.707 0.12 1.048 0 0.366-0.099 0.752-0.109 0.887 0.394s-0.186 0.781-0.562 0.938c-0.548 0.259-1.158 0.29-1.724 0.087-0.623-0.239-1.274-0.387-1.876-0.701-0.689-0.389-1.512-0.303-2.127 0.224-2.084 1.664-4.347 1.876-6.729 1.119-1.466-0.477-3.030-0.376-4.441 0.287-1.142 0.529-2.372 0.758-3.603 0.672-0.25 0.006-0.496-0.081-0.699-0.25-0.122-0.116-0.245-0.255-0.196-0.463s0.196-0.224 0.333-0.251c0.437-0.099 0.872-0.204 1.309-0.287 0.759-0.118 1.501-0.349 2.208-0.689 1.091-0.584 2.243-0.771 3.557-0.784v0.001z"></path>
<path fill="#fdfdfd" style="fill: var(--color6, #fdfdfd)" d="M25.321 19.76c-0.48-0.111-0.938-0.317-1.352-0.608-1.222-0.741-2.379-0.596-3.471 0.301-1.517 1.244-3.151 1.678-5.013 1.156-0.918-0.259-1.841-0.493-2.756-0.774-1.028-0.302-2.115-0.255-3.119 0.136-0.998 0.392-2.046 0.6-3.104 0.616-0.124 0.011-0.25 0.005-0.374-0.018-0.268-0.079-0.628-0.092-0.632-0.509s0.34-0.438 0.62-0.511c0.732-0.184 1.494-0.285 2.189-0.584 2.020-0.877 4.006-0.726 6.049-0.077 1.032 0.326 2.103 0.673 3.219 0.438 0.762-0.145 1.481-0.487 2.101-1 1.536-1.277 3.139-1.415 4.81-0.32 0.343 0.214 0.7 0.399 1.067 0.554 0.278 0.125 0.49 0.298 0.435 0.658-0.063 0.399-0.356 0.5-0.669 0.54v0zM12.395 21.59c0.596-0.023 1.19 0.097 1.729 0.35 0.93 0.485 1.943 0.64 2.963 0.762 0.658 0.080 1.242-0.184 1.784-0.531 1.055-0.68 2.181-1.185 3.442-1.315 0.845-0.1 1.702 0.044 2.467 0.413 0.241 0.118 0.495 0.21 0.757 0.274 0.264 0.030 0.464 0.25 0.464 0.513-0.009 0.26-0.198 0.48-0.456 0.531-0.328 0.1-0.684 0.070-0.991-0.083-1.388-0.64-2.73-0.448-4.063 0.155-0.199 0.083-0.39 0.184-0.571 0.301-1.884 1.308-3.862 1.037-5.821 0.27-0.94-0.368-1.784-0.497-2.75-0.086-1.073 0.458-2.238 0.526-3.396 0.448-0.371-0.026-0.962-0.033-0.952-0.492s0.595-0.413 0.968-0.458c1.13-0.11 2.239-0.374 3.296-0.783 0.351-0.173 0.739-0.266 1.132-0.27v0zM23.566 10.62c-0.664 0-1.137-0.397-1.64-0.697-1.028-0.624-1.382-0.526-1.967 0.531-0.531 1.037-1.54 1.694-2.646 1.722-0.759 0.042-1.521 0.015-2.226-0.366-0.401-0.205-0.739-0.53-0.973-0.934-0.152-0.198-0.152-0.484 0-0.682 0.179-0.227 0.408-0.194 0.632-0.098 0.129 0.060 0.252 0.134 0.366 0.223 0.66 0.491 1.408 0.584 2.179 0.526 0.73-0.056 1.236-0.483 1.579-1.169 0.806-1.615 2.052-1.974 3.533-1.040 0.094 0.052 0.184 0.111 0.271 0.177 0.595 0.509 1.149 0.545 1.723-0.073 0.273-0.293 0.646-0.349 0.939 0s0.152 0.685-0.097 0.966c-0.43 0.519-1.027 0.846-1.673 0.915v0z"></path>
<path fill="#fdfdfd" style="fill: var(--color6, #fdfdfd)" d="M14 13.573c0.062-0.348 0.265-0.451 0.559-0.348 0.241 0.081 0.479 0.178 0.717 0.273 1.777 0.713 3.253 0.050 4.588-1.272 0.422-0.417 0.861-0.817 1.43-0.965 0.621-0.184 1.282-0.072 1.828 0.309 0.605 0.446 1.373 0.499 2.020 0.137 0.164-0.086 0.335-0.157 0.509-0.211 0.329-0.1 0.628-0.030 0.786 0.342s0 0.692-0.287 0.884c-0.997 0.654-2.094 1.012-3.151 0.349s-1.754-0.282-2.551 0.508c-1.197 1.164-2.58 1.912-4.23 1.579-0.69-0.138-1.396-0.33-1.908-0.938-0.166-0.168-0.275-0.397-0.309-0.647v0z"></path>
<path fill="#fcfcfc" style="fill: var(--color7, #fcfcfc)" d="M5.205 12.764c0.403 0.288 0.573-0.033 0.808-0.341s0.589-0.33 0.764 0.060c0.081 0.278 0.366 0.438 0.64 0.358 0.249-0.043 0.49 0.113 0.556 0.362 0.044 0.128 0.033 0.269-0.029 0.388s-0.171 0.207-0.3 0.243c-0.438 0.14-0.536 0.388-0.385 0.809 0.077 0.223 0.079 0.464-0.182 0.566-0.197 0.079-0.42-0.014-0.506-0.211-0.318-0.605-0.692-0.467-1.096-0.105-0.060 0.052-0.124 0.101-0.191 0.145-0.219 0.147-0.468 0.323-0.692 0.076s0-0.446 0.179-0.649c0.298-0.315 0.588-0.652 0.022-1.015-0.157-0.112-0.196-0.332-0.088-0.493 0.102-0.188 0.278-0.205 0.497-0.194z"></path>
<path fill="#fbfbfb" style="fill: var(--color8, #fbfbfb)" d="M10.276 12.378c0.31 0.081 0.482-0.076 0.648-0.348 0.276-0.454 0.591-0.467 0.847-0.015 0.146 0.26 0.319 0.235 0.538 0.237 0.283 0 0.588 0 0.676 0.355 0.077 0.315-0.137 0.483-0.39 0.579-0.339 0.128-0.35 0.321-0.188 0.593 0.066 0.122 0.115 0.252 0.143 0.387 0.069 0.193-0.008 0.408-0.186 0.515-0.185 0.099-0.416 0.044-0.533-0.128-0.082-0.087-0.156-0.181-0.221-0.28-0.201-0.298-0.424-0.401-0.723-0.113-0.075 0.065-0.159 0.12-0.25 0.163-0.147 0.118-0.359 0.113-0.499-0.013-0.164-0.164-0.082-0.316 0.051-0.466 0.2-0.218 0.243-0.396-0.142-0.485-0.327-0.076-0.632-0.25-0.524-0.652 0.095-0.355 0.424-0.372 0.753-0.328v0zM12 8.941c-0.003 0.214-0.156 0.392-0.359 0.42-0.252 0.058-0.423 0.137-0.487 0.461-0.074 0.369-0.435 0.452-0.684 0.163-0.122-0.177-0.337-0.258-0.54-0.202-0.017 0.004-0.035 0.004-0.052 0-0.241-0.042-0.472-0.341-0.34-0.403 0.518-0.283-0.664-1.331 0.573-1.248 0.513 0.028 1.018 0.159 1.483 0.385 0.2 0.087 0.372 0.18 0.406 0.424v-0.001z"></path>
</symbol>
<symbol id="icon-shipping-3" viewBox="0 0 32 32">
<path d="M0.368 19.264c-0.266-1.28-0.332-2.593-0.194-3.893 0.059-0.294 0.025-0.6-0.097-0.874-0.115-0.225-0.078-0.472-0.043-0.712 0.003-0.021 0.006-0.043 0.009-0.064 1.011-7.274 7.11-13.053 14.413-13.662 8.595-0.716 15.976 5.042 17.347 13.542 1.395 8.647-4.838 17.046-13.52 18.219-0.721 0.098-1.446 0.157-2.173 0.179-7.784-0.012-14.343-5.379-15.743-12.736zM15.892 30.519c8.267 0.239 15.090-6.305 15.123-14.682h-0.001c-0.020-0.677-0.078-1.351-0.173-2.021-1.005-6.88-7.045-12.175-14.059-12.333-7.211-0.163-13.395 4.731-14.758 11.675-0.022 0.123-0.040 0.248-0.058 0.374-0.065 0.461-0.131 0.926-0.438 1.325-0.058 0.076-0.054 0.205-0.050 0.324 0.001 0.029 0.002 0.058 0.002 0.085-0.003 1.139 0.115 2.276 0.352 3.391 1.455 6.776 7.25 11.669 14.060 11.862z"></path>
<path d="M5.508 19.007v1.075c0.015 0.219 0.010 0.437 0.004 0.653-0.012 0.473-0.024 0.935 0.185 1.368 0.644 1.34 1.789 1.853 3.178 1.869 1.169 0.013 1.965 0.54 2.505 1.535 0.166 0.308 0.327 0.624 0.47 0.944 0.174 0.392 0.371 0.773 0.735 1.014 0.987 0.653 2.696 1.014 3.933-0.239 0.472-0.5 0.99-0.955 1.547-1.36 0.457-0.336 0.998-0.538 1.562-0.583 0.452-0.023 0.902-0.075 1.352-0.127 0.667-0.077 1.333-0.154 2.008-0.138 1.418 0.031 2.3-0.698 2.803-1.98 0.23-0.539 0.323-1.128 0.269-1.712-0.141-1.162 0.373-2.042 1.079-2.872 0.332-0.365 0.635-0.755 0.908-1.165 0.667-1.083 0.901-2.536-0.716-3.432-0.982-0.542-1.549-1.436-1.901-2.506-0.257-0.881-0.399-1.793-0.422-2.71-0.077-1.263-0.737-2.22-1.845-2.505-0.764-0.225-1.571-0.26-2.352-0.103-1.741 0.42-3.18-0.066-4.401-1.329-0.264-0.288-0.597-0.504-0.968-0.627-1.636-0.521-3.171 0.484-3.511 2.305-0.237 1.319-0.984 1.995-2.321 2.065-0.545 0.028-1.087 0.084-1.625 0.167-0.931 0.144-1.967 1.055-2.041 1.832-0.092 0.705-0.043 1.421 0.143 2.106 0.099 0.317 0.18 0.643 0.25 0.972 0.105 0.488-0.028 0.855-0.515 1.084-0.285 0.138-0.55 0.314-0.789 0.522-0.744 0.64-0.826 1.967-0.083 2.592 0.444 0.371 0.544 0.787 0.559 1.286zM16.433 23.142c-3.813-0.053-6.785-2.895-7.061-6.754-0.26-3.626 2.347-6.843 6.029-7.443 3.163-0.493 6.24 1.309 7.4 4.333 0.107 0.282 0.185 0.574 0.231 0.872 0.010 0.064 0.017 0.128 0.025 0.192v0c0.042 0.343 0.082 0.674 0.4 0.934 0.178 0.146 0.176 0.413 0.174 0.658-0 0.031-0.001 0.062-0 0.093 0.037 3.857-3.307 7.168-7.198 7.114v0.001zM14.705 10.025c-2.58 0.698-4.373 3.064-4.367 5.763 0 1.691 0.721 3.3 1.978 4.414s2.93 1.628 4.588 1.407c2.795-0.381 4.787-2.675 4.945-5.683 0.003-0.059 0.002-0.122 0.002-0.187v-0c-0.002-0.188-0.004-0.383 0.088-0.486 0.357-0.402 0.198-0.754 0.035-1.111-0.023-0.051-0.046-0.102-0.068-0.153-0.139-0.347-0.296-0.687-0.47-1.018-1.329-2.404-4.087-3.611-6.73-2.945zM15.915 18.933c0.196 0.162 0.445 0.256 0.705 0.266 0.449 0 0.703-0.26 0.872-0.605 0.282-0.564 0.618-1.103 1.005-1.609 0.264-0.341 0.5-0.7 0.735-1.058 0.382-0.581 0.764-1.162 1.265-1.669 0.117-0.104 0.182-0.25 0.179-0.402s-0.075-0.294-0.197-0.394c-0.232-0.221-0.611-0.228-0.851-0.015-0.237 0.165-0.446 0.361-0.623 0.582-0.149 0.196-0.298 0.391-0.447 0.587l-0 0c-0.644 0.843-1.288 1.687-1.868 2.569-0.306 0.466-0.49 0.42-0.838 0.116-0.595-0.513-1.286-0.903-1.977-1.293zM15.915 18.933c-1.082-0.784-2.154-1.57-3.219-2.358l3.219 2.358zM12.696 16.575c-0.288-0.213-0.541-0.485-0.279-0.837l0.279 0.837zM12.417 15.738c0.261-0.352 0.618-0.213 0.928-0.032l-0.928 0.032zM13.345 15.706c0.176 0.102 0.353 0.202 0.531 0.303l-0.531-0.303z"></path>
</symbol>
</defs>
</svg>
