<svg aria-hidden="true" style="position: absolute; width: 0; height: 0; overflow: hidden;" version="1.1" xmlns="http://www.w3.org/2000/svg" xmlns:xlink="http://www.w3.org/1999/xlink">
<defs>
<symbol id="icon-e5" viewBox="0 0 33 32">
<path d="M12.934 0.498c-2.51 0.556-5.308 1.954-7.128 3.583-0.402 0.345-0.862 0.69-1.035 0.747-0.172 0.077-0.479 0.46-0.69 0.862s-0.69 1.284-1.073 1.974c-1.092 1.974-1.686 4.311-1.782 6.994-0.058 1.265-0.23 2.778-0.383 3.372-0.307 1.169-0.23 1.629 0.287 1.801 0.211 0.058 0.517 0.69 0.862 1.782 0.786 2.453 1.571 3.794 3.085 5.308 4.695 4.733 10.98 6.247 17.054 4.12 3.775-1.303 7.32-5.059 8.929-9.389 0.345-0.958 0.747-1.725 0.862-1.725s0.326-0.134 0.46-0.287c0.192-0.23 0.172-0.537-0.077-1.533-0.172-0.671-0.307-1.763-0.307-2.395 0-1.61-0.479-3.794-1.284-5.787-1.801-4.503-5.116-7.569-9.83-9.063-2.069-0.671-5.825-0.843-7.952-0.364zM20.407 2.587c3.813 0.977 7.492 4.005 9.293 7.665 1.686 3.411 1.552 7.722-0.364 11.689-1.705 3.564-4.331 5.825-8.412 7.243-2.165 0.766-5.327 0.939-7.607 0.422-1.763-0.383-4.446-1.705-5.71-2.778-1.456-1.284-3.89-4.675-4.541-6.343-1.916-5.001-0.556-9.849 4.043-14.275 2.184-2.089 4.695-3.392 7.492-3.909 1.341-0.23 4.369-0.096 5.806 0.287z"></path>
<path d="M10.443 8.393c-0.479 0.096-1.38 0.939-1.744 1.61-0.996 1.897 0.728 3.986 2.644 3.2 0.766-0.326 1.686-1.744 1.686-2.644 0-0.92-0.613-1.897-1.284-2.050-0.287-0.057-0.613-0.134-0.728-0.153-0.096-0.019-0.364 0-0.575 0.038z"></path>
<path d="M20.733 9.044c-1.207 1.265-1.36 2.702-0.402 3.717 0.996 1.054 2.529 0.728 3.487-0.747 1.15-1.763 0.268-3.583-1.744-3.583-0.575 0-0.862 0.134-1.341 0.613z"></path>
<path d="M14.237 18.089c-1.495 0.556-1.993 0.881-3.353 2.184-1.131 1.073-1.418 1.801-0.824 2.031 0.441 0.153 0.728-0.019 1.245-0.786 0.613-0.881 2.453-2.089 3.813-2.472 1.859-0.556 3.851-0.077 5.499 1.341 1.054 0.901 2.184 1.648 2.51 1.648 0.134 0 0.402-0.307 0.575-0.671l0.326-0.671-0.747-0.766c-0.402-0.422-0.786-0.709-0.843-0.671-0.038 0.058 0.23 0.422 0.613 0.824s0.709 0.786 0.709 0.843c0 0.077-0.402-0.287-0.901-0.824-0.594-0.632-1.38-1.188-2.338-1.667-1.322-0.632-1.629-0.69-3.277-0.747-1.533-0.058-2.012 0.019-3.008 0.402z"></path>
<path d="M11.056 22.151c-0.192 0.249-0.537 0.46-0.747 0.46-0.326 0-0.364 0.058-0.211 0.211 0.268 0.268 1.15-0.211 1.341-0.709 0.172-0.479-0.019-0.46-0.383 0.038z"></path>
<path d="M25.217 2.587c0.479 0.364 0.671 0.364 0.537 0-0.077-0.153-0.307-0.287-0.517-0.287-0.383 0-0.383 0-0.019 0.287z"></path>
<path d="M3.871 4.637c-0.134 0.134-0.23 0.402-0.23 0.613 0.019 0.402 0.019 0.402 0.23 0.019 0.115-0.211 0.364-0.479 0.517-0.613 0.268-0.211 0.268-0.23 0.019-0.249-0.172 0-0.402 0.096-0.537 0.23z"></path>
<path d="M0.211 18.721c-0.115 0.402-0.211 0.843-0.211 0.958 0 0.268 0.92 0.92 1.073 0.766 0.058-0.058-0.077-0.211-0.307-0.326-0.383-0.211-0.422-0.326-0.307-1.169 0.153-1.111 0.019-1.226-0.249-0.23z"></path>
<path d="M32.153 20.254c-0.192 0.038-0.345 0.153-0.345 0.249 0 0.192 0.728 0.019 0.881-0.211 0.096-0.172 0.019-0.192-0.537-0.038z"></path>
</symbol>
<symbol id="icon-e3" viewBox="0 0 33 32">
<path d="M12.934 0.498c-2.491 0.556-5.25 1.897-6.917 3.392-0.517 0.46-1.092 0.881-1.284 0.958-0.172 0.077-0.441 0.364-0.556 0.651-0.134 0.287-0.517 0.958-0.862 1.495-1.303 2.031-2.165 5.25-2.165 8.144 0 1.054-0.134 2.261-0.326 3.008l-0.345 1.245 0.517 0.422c0.345 0.268 0.651 0.843 0.939 1.744 0.575 1.859 1.514 3.66 2.491 4.771 1.954 2.223 5.538 4.465 8.316 5.193 1.705 0.441 4.599 0.575 6.362 0.287 5.768-0.92 9.945-4.656 12.206-10.96 0.192-0.517 0.479-0.958 0.69-1.016 0.479-0.153 0.594-0.537 0.364-1.284-0.115-0.345-0.268-1.629-0.364-2.836-0.383-4.886-2.549-9.485-5.614-11.88-0.556-0.422-0.862-0.805-0.843-1.054 0.019-0.23-0.096-0.402-0.345-0.441l-0.383-0.077 0.383 0.307c0.651 0.498 0.115 0.345-1.111-0.345-0.651-0.364-2.012-0.939-3.008-1.284-1.61-0.537-2.108-0.613-4.311-0.671-1.763-0.057-2.893 0.019-3.832 0.23zM20.407 2.606c2.663 0.709 5.212 2.319 7.128 4.522 2.165 2.491 3.123 4.714 3.277 7.646 0.249 4.886-2.012 9.696-5.768 12.283-2.874 1.954-5.538 2.836-8.642 2.836-3.602 0-6.63-1.131-9.14-3.392-1.15-1.035-3.43-4.158-4.062-5.557-0.613-1.36-1.092-3.392-1.092-4.618 0-2.050 0.862-4.752 2.146-6.764 2.568-3.966 6.17-6.496 10.347-7.262 1.341-0.23 4.369-0.077 5.806 0.307z"></path>
<path d="M21.269 8.584c-1.935 0.939-2.165 3.986-0.345 4.618 1.073 0.383 1.514 0.268 2.376-0.632s1.15-1.686 0.939-2.587c-0.268-1.207-1.82-1.954-2.97-1.399z"></path>
<path d="M9.428 8.987c-0.92 0.92-1.245 1.801-0.996 2.683 0.307 1.15 1.073 1.744 2.204 1.744 0.939 0 2.395-1.744 2.395-2.893 0-0.652-0.556-1.629-1.073-1.878-0.901-0.402-1.916-0.268-2.529 0.345z"></path>
<path d="M14.007 17.916c-0.671 0.153-1.878 0.594-2.683 0.996-1.38 0.69-1.456 0.766-1.456 1.38 0 0.441 0.134 0.728 0.383 0.901 0.326 0.211 0.556 0.153 1.61-0.345 1.801-0.843 2.798-1.111 4.656-1.245 2.012-0.134 3.622 0.153 5.25 0.92 0.651 0.307 1.303 0.556 1.437 0.575 0.153 0 0.096 0.077-0.115 0.172-0.326 0.153-0.287 0.172 0.192 0.134 0.383-0.019 0.594-0.153 0.632-0.402 0.058-0.211 0-0.307-0.134-0.23-0.115 0.077-0.211 0-0.211-0.172 0-0.862-2.568-2.261-4.925-2.683-1.859-0.345-3.066-0.326-4.637 0z"></path>
<path d="M9.849 21.538c0.402 0.326 1.456 0.422 1.456 0.134 0-0.077-0.23-0.153-0.517-0.153-0.307 0-0.709-0.058-0.92-0.134-0.383-0.153-0.383-0.134-0.019 0.153z"></path>
<path d="M3.871 4.637c-0.134 0.134-0.23 0.402-0.211 0.613 0 0.383 0.019 0.383 0.172-0.019 0.096-0.23 0.326-0.498 0.517-0.613 0.268-0.153 0.287-0.192 0.058-0.211-0.172 0-0.402 0.096-0.537 0.23z"></path>
<path d="M0.307 18.184c-0.057 0.096-0.172 0.575-0.23 1.054-0.115 0.824-0.096 0.881 0.383 1.073 0.786 0.287 0.843 0.23 0.249-0.249-0.479-0.402-0.498-0.46-0.307-1.15 0.192-0.728 0.134-1.131-0.096-0.728z"></path>
<path d="M31.885 20.426c-0.326 0.268-0.326 0.287-0.019 0.192 0.192-0.058 0.441-0.115 0.537-0.115s0.172-0.096 0.172-0.192c0-0.268-0.249-0.23-0.69 0.115z"></path>
</symbol>
<symbol id="icon-e4" viewBox="0 0 33 32">
<path d="M13.432 0.383c-2.625 0.556-5.212 1.763-7.147 3.315-0.671 0.556-1.399 1.092-1.61 1.207-0.192 0.115-0.402 0.383-0.441 0.575s-0.326 0.728-0.632 1.188c-1.418 2.050-2.223 4.848-2.376 8.182-0.077 1.265-0.23 2.759-0.364 3.315-0.287 1.15-0.23 1.495 0.287 1.667 0.23 0.077 0.498 0.575 0.766 1.495 0.594 1.974 1.36 3.526 2.242 4.656 0.958 1.188 3.277 3.085 4.925 4.005 5.308 2.951 12.072 2.587 16.709-0.939 2.127-1.59 4.426-4.829 5.269-7.377 0.268-0.786 0.632-1.437 0.996-1.782l0.594-0.517-0.326-1.399c-0.192-0.766-0.326-1.897-0.326-2.491 0-2.146-0.824-4.963-2.242-7.684-0.517-0.996-1.226-1.878-2.51-3.162-1.552-1.533-2.031-1.897-3.737-2.721-1.073-0.517-2.472-1.073-3.104-1.246-1.341-0.364-5.71-0.556-6.975-0.287zM20.407 2.587c1.61 0.402 4.005 1.629 5.365 2.721 2.223 1.801 4.139 4.656 4.79 7.147 1.303 4.925-1.054 11.516-5.135 14.39-2.989 2.108-5.787 3.047-9.044 3.047-4.369 0-7.837-1.667-10.616-5.116-2.472-3.066-3.468-5.519-3.468-8.489 0-3.411 1.322-6.381 4.196-9.447 2.434-2.568 5.078-4.024 8.354-4.56 1.303-0.211 4.158-0.058 5.557 0.307z"></path>
<path d="M10.443 8.393c-0.479 0.096-1.15 0.709-1.667 1.533-0.517 0.843-0.402 2.184 0.268 2.855 1.552 1.533 4.139-0.115 3.928-2.491-0.057-0.594-0.23-1.073-0.46-1.322-0.422-0.402-1.456-0.69-2.069-0.575z"></path>
<path d="M21.748 8.393c-0.479 0.096-1.38 0.939-1.744 1.61-0.996 1.897 0.728 3.986 2.644 3.2 0.766-0.326 1.686-1.744 1.686-2.644 0-0.92-0.613-1.897-1.284-2.050-0.287-0.057-0.613-0.134-0.728-0.153-0.096-0.019-0.364 0-0.575 0.038z"></path>
<path d="M9.907 18.357c-0.364 0.383-0.441 1.475-0.134 1.667 0.115 0.077 0.153-0.134 0.077-0.517-0.096-0.556-0.077-0.594 0.134-0.249 0.747 1.245 2.376 2.453 4.177 3.085 3.142 1.111 6.649 0.115 9.102-2.625 0.766-0.824 0.862-1.552 0.249-1.667-0.23-0.058-0.69 0.307-1.36 1.054-1.667 1.82-3.89 2.683-6.074 2.338-1.092-0.172-2.146-0.728-3.545-1.878-0.517-0.441-1.169-0.901-1.456-1.035-0.307-0.115-0.537-0.287-0.537-0.364 0-0.268-0.307-0.172-0.632 0.192z"></path>
<path d="M24.163 18.453c-0.019 0.307-0.115 0.709-0.211 0.92-0.153 0.249-0.134 0.364 0 0.364 0.345 0 0.613-0.996 0.402-1.437-0.172-0.345-0.192-0.345-0.192 0.153z"></path>
<path d="M25.006 2.299c-0.058 0.096 0.019 0.192 0.172 0.192 0.172 0 0.307 0.077 0.307 0.192 0 0.096 0.096 0.192 0.192 0.192 0.326 0 0.211-0.364-0.172-0.575-0.249-0.134-0.422-0.134-0.498 0z"></path>
<path d="M3.947 4.714c-0.172 0.153-0.307 0.441-0.287 0.613 0 0.249 0.058 0.23 0.211-0.077 0.096-0.23 0.383-0.517 0.613-0.613 0.307-0.153 0.326-0.211 0.077-0.211-0.172-0.019-0.46 0.115-0.613 0.287z"></path>
<path d="M0.211 18.893c-0.249 0.977-0.115 1.303 0.613 1.495 0.422 0.096 0.422 0.096-0.038-0.249-0.402-0.307-0.441-0.441-0.326-1.245 0.172-1.131 0.038-1.131-0.249 0z"></path>
<path d="M32.077 20.407c-0.345 0.249-0.345 0.268 0.077 0.153 0.23-0.058 0.479-0.172 0.537-0.268 0.153-0.268-0.192-0.211-0.613 0.115z"></path>
</symbol>
<symbol id="icon-e2" viewBox="0 0 33 32">
<path d="M13.183 0.46c-2.778 0.632-5.040 1.763-7.396 3.679-0.575 0.46-1.092 0.843-1.169 0.843s-0.268 0.287-0.441 0.613c-0.153 0.345-0.613 1.207-0.996 1.916-1.303 2.376-1.744 4.139-2.050 8.201-0.096 1.322-0.23 2.759-0.287 3.2-0.096 0.671-0.057 0.805 0.268 0.901 0.287 0.096 0.537 0.556 0.92 1.705 0.287 0.862 0.747 2.050 1.054 2.644 1.552 3.104 5.557 6.132 9.658 7.301 1.265 0.364 1.993 0.441 4.12 0.441 3.066-0.019 4.752-0.402 7.166-1.686 3.104-1.648 6.055-5.327 7.281-9.083 0.211-0.613 0.517-1.111 0.824-1.303 0.422-0.268 0.46-0.422 0.364-1.016-0.057-0.402-0.211-1.61-0.307-2.721-0.383-3.775-1.399-6.937-3.028-9.332-1.82-2.663-5.174-5.040-8.489-6.017-1.782-0.498-5.844-0.671-7.492-0.287zM20.407 2.587c3.277 0.824 6.381 3.085 8.412 6.093 2.261 3.315 2.74 6.687 1.533 10.845-1.245 4.292-3.641 7.032-7.837 9.025-2.261 1.073-4.062 1.418-6.783 1.284-4.254-0.192-7.262-1.744-9.964-5.116-2.395-3.008-3.277-5.001-3.411-7.856-0.153-3.085 0.671-5.557 2.855-8.431 2.491-3.315 5.614-5.365 9.255-6.055 1.59-0.307 4.292-0.211 5.94 0.211z"></path>
<path d="M10.117 8.604c-0.652 0.326-1.437 1.322-1.629 2.089-0.172 0.709 0.268 1.916 0.843 2.299 0.287 0.172 0.881 0.326 1.322 0.326 0.958 0 1.59-0.498 2.184-1.744 0.345-0.69 0.383-0.939 0.211-1.571-0.383-1.36-1.725-2.012-2.932-1.399z"></path>
<path d="M21.519 8.527c-1.245 0.537-2.069 2.376-1.61 3.583 0.479 1.245 2.395 1.648 3.392 0.709 1.648-1.533 1.341-3.947-0.537-4.369-0.441-0.115-0.881-0.077-1.245 0.077z"></path>
<path d="M23.856 18.012c0.172 0.192 0.402 0.651 0.479 0.996l0.153 0.632 0.019-0.69c0.019-0.441-0.115-0.805-0.326-0.996-0.498-0.46-0.747-0.402-0.326 0.058z"></path>
<path d="M9.753 18.434c-0.192 0.345-0.172 0.383 0.096 0.287 0.211-0.096 0.307-0.019 0.307 0.23 0 0.192 0.287 0.575 0.632 0.824 1.993 1.533 5.289 2.319 8.010 1.916 1.629-0.23 4.081-1.15 4.752-1.782 0.517-0.479 0.479-1.265-0.077-1.629-0.345-0.23-0.556-0.192-1.629 0.326-3.43 1.629-6.917 1.744-9.887 0.345-0.652-0.307-1.341-0.556-1.533-0.575-0.268-0.019-0.249-0.058 0.115-0.172l0.479-0.153-0.517-0.019c-0.345-0.019-0.594 0.115-0.747 0.402z"></path>
<path d="M25.025 2.261c-0.038 0.077 0.134 0.23 0.383 0.364 0.249 0.115 0.46 0.134 0.46 0.038 0-0.23-0.728-0.594-0.843-0.402z"></path>
<path d="M3.966 4.752c-0.364 0.402-0.422 0.805-0.134 0.805 0.115 0 0.192-0.115 0.192-0.268s0.192-0.422 0.422-0.575c0.307-0.23 0.345-0.307 0.134-0.307-0.172 0-0.441 0.153-0.613 0.345z"></path>
<path d="M0.249 18.874c-0.211 0.939-0.077 1.284 0.613 1.514 0.307 0.096 0.307 0.058-0.077-0.249-0.441-0.345-0.46-0.422-0.268-1.245 0.096-0.479 0.134-0.881 0.057-0.881s-0.211 0.383-0.326 0.862z"></path>
<path d="M32.077 20.407c-0.192 0.153-0.268 0.287-0.153 0.287 0.096 0 0.364-0.134 0.575-0.287 0.192-0.153 0.268-0.287 0.153-0.287-0.096 0-0.364 0.134-0.575 0.287z"></path>
</symbol>
<symbol id="icon-e1" viewBox="0 0 33 32">
<path d="M12.8 0.575c-2.663 0.671-4.982 1.84-6.726 3.411-0.441 0.402-0.939 0.786-1.092 0.843-0.364 0.134-1.974 2.798-2.587 4.311-0.632 1.59-1.016 3.66-1.131 6.093-0.038 1.15-0.192 2.568-0.326 3.142-0.249 0.996-0.23 1.035 0.23 1.437 0.307 0.249 0.671 0.977 1.016 2.031 0.786 2.376 1.303 3.296 2.74 4.81 2.165 2.299 4.905 3.966 7.856 4.81 1.207 0.345 1.993 0.422 4.081 0.441 3.047 0 4.656-0.383 7.166-1.686 2.932-1.495 5.768-4.905 7.128-8.546 0.422-1.131 0.747-1.686 1.035-1.82 0.364-0.153 0.402-0.307 0.307-0.958-0.057-0.441-0.192-1.782-0.307-3.008-0.23-2.702-0.862-5.020-2.050-7.454-0.747-1.59-1.111-2.050-2.721-3.641-1.897-1.878-3.008-2.625-5.231-3.507-2.836-1.131-6.515-1.418-9.389-0.709zM20.465 2.587c2.606 0.671 4.829 2.012 6.783 4.101 2.721 2.893 3.698 5.25 3.698 8.834-0.019 2.663-0.46 4.407-1.725 6.879-1.475 2.836-3.334 4.56-6.63 6.151-3.871 1.859-8.469 1.82-12.359-0.115-3.258-1.61-6.783-6.074-7.646-9.677-0.977-4.177 0.632-8.623 4.503-12.436 2.184-2.146 4.56-3.411 7.377-3.947 1.59-0.307 4.407-0.211 5.998 0.211z"></path>
<path d="M10.194 8.546c-0.671 0.268-1.514 1.418-1.686 2.299-0.383 1.897 1.897 3.296 3.372 2.069 0.862-0.728 1.399-1.897 1.245-2.683-0.249-1.38-1.686-2.223-2.932-1.686z"></path>
<path d="M21.48 8.546c-0.671 0.287-1.744 1.82-1.744 2.51 0 0.881 0.537 1.782 1.226 2.069 1.016 0.422 1.552 0.345 2.299-0.287 0.92-0.805 1.38-2.050 1.092-2.932-0.422-1.245-1.705-1.859-2.874-1.36z"></path>
<path d="M11.305 18.625c-1.514 0.192-2.395 0.594-2.223 1.016 0.057 0.153 0 0.307-0.134 0.364-0.153 0.058-0.115 0.192 0.134 0.383 0.211 0.172 0.422 0.249 0.479 0.192s0-0.153-0.115-0.23c-0.115-0.077 3.2-0.153 7.377-0.192s7.645-0.096 7.741-0.153c0.077-0.058 0.153-0.287 0.153-0.517 0-0.345 0.038-0.364 0.211-0.134 0.153 0.249 0.192 0.23 0.134-0.077-0.038-0.211-0.23-0.402-0.441-0.46-1.648-0.383-10.769-0.517-13.317-0.192z"></path>
<path d="M25.102 2.242c0 0.096 0.172 0.268 0.383 0.402s0.383 0.153 0.383 0.038c0-0.096-0.172-0.268-0.383-0.383s-0.383-0.134-0.383-0.058z"></path>
<path d="M3.947 4.829c-0.345 0.498-0.383 0.728-0.115 0.728 0.115 0 0.192-0.115 0.192-0.268s0.192-0.422 0.422-0.575c0.345-0.249 0.364-0.307 0.115-0.307-0.172 0-0.46 0.192-0.613 0.422z"></path>
<path d="M0.383 18.472c-0.364 0.958-0.249 1.629 0.307 1.84 0.709 0.268 0.824 0.211 0.23-0.115-0.594-0.307-0.632-0.441-0.345-1.399 0.23-0.805 0.096-1.035-0.192-0.326z"></path>
<path d="M32.077 20.426c-0.326 0.268-0.326 0.287-0.019 0.192 0.192-0.058 0.441-0.115 0.537-0.115s0.172-0.096 0.172-0.192c0-0.268-0.249-0.23-0.69 0.115z"></path>
</symbol>
</defs>
</svg>
