<svg xmlns="http://www.w3.org/2000/svg" xmlns:xlink="http://www.w3.org/1999/xlink" width="84.288" height="85.486" viewBox="0 0 84.288 85.486">
  <defs>
    <clipPath id="clip-path">
      <rect id="Rectangle_12" data-name="Rectangle 12" width="84.288" height="85.486" fill="#103b19"/>
    </clipPath>
  </defs>
  <g id="Group_62" data-name="Group 62" clip-path="url(#clip-path)">
    <path id="Path_121" data-name="Path 121" d="M110.876,53.652c-.033,0-.066,0-.1,0a1.722,1.722,0,0,1-1.622-1.818c.009-.166.024-.332.044-.5A8.886,8.886,0,0,1,121.654,44.3a16.732,16.732,0,0,1,9.584-3.547,60.105,60.105,0,0,1,1.685-5.92,16.883,16.883,0,0,1-5.041-6.678c-1.525-3.829-1.993-9.9,4.437-17.093,3.125-3.494,7.424-4.38,11.974-5.317,4.509-.928,9.171-1.889,13.671-5.38a1.723,1.723,0,0,1,2.7,1.864,48.738,48.738,0,0,0-1.919,13.254,38.95,38.95,0,0,1-.436,5.384c-1.628,8.993-5.768,13.195-8.956,15.136a15.41,15.41,0,0,1-12.536,1.474,1.716,1.716,0,0,1-.924-.686c-.517,1.588-1.066,3.652-1.6,6.033a1.732,1.732,0,0,1-1.717,1.345c-3.12-.059-7.321,1.077-9.319,3.385a1.723,1.723,0,0,1-2.252.31,5.441,5.441,0,0,0-8.388,3.873c-.012.1-.021.2-.026.294a1.723,1.723,0,0,1-1.718,1.625M137.326,34.1a1.722,1.722,0,0,1,.506.076,11.966,11.966,0,0,0,9.733-1.122c3.705-2.256,6.249-6.685,7.357-12.806a36.717,36.717,0,0,0,.382-4.9,59.236,59.236,0,0,1,.984-9.82,40.491,40.491,0,0,1-11.3,3.587c-4.15.855-7.735,1.593-10.1,4.239-3.57,3.992-5.039,7.885-4.368,11.57a12.529,12.529,0,0,0,5.044,7.565,1.746,1.746,0,0,1,.275.114,1.723,1.723,0,0,1,.929,1.591,1.717,1.717,0,0,1,.559-.094m-3.751-.868v0m.587-.581a1.691,1.691,0,0,0-.587.58,1.718,1.718,0,0,1,.587-.58" transform="translate(-82.287 0)" fill="#103b19"/>
    <path id="Path_122" data-name="Path 122" d="M209.078,68.9a1.724,1.724,0,0,1-1.607-2.343,67.666,67.666,0,0,1,14.354-22.19,1.723,1.723,0,0,1,2.5,2.374A64.236,64.236,0,0,0,210.686,67.8a1.724,1.724,0,0,1-1.608,1.1" transform="translate(-156.321 -33.045)" fill="#103b19"/>
    <path id="Path_123" data-name="Path 123" d="M219.611,185.252A1.724,1.724,0,0,1,217.972,183a3.84,3.84,0,0,0-.636-3.329,11.164,11.164,0,0,0-6.136-4.362,16.292,16.292,0,0,0-1.78-.152l-.006,0a4.544,4.544,0,0,1-.828.215,1.725,1.725,0,0,1-1.939-1.22c-.8-2.773-4.674-4.162-7.235-5.08-.286-.1-.555-.2-.8-.292a1.723,1.723,0,0,1,1.2-3.23c.237.088.495.18.767.278,2.666.956,6.915,2.48,8.771,5.883a17.605,17.605,0,0,1,2.249.172c2.522.29,6.6,2.739,8.641,5.923a7.207,7.207,0,0,1,1.014,6.257,1.724,1.724,0,0,1-1.638,1.19" transform="translate(-148.879 -124.722)" fill="#103b19"/>
    <path id="Path_124" data-name="Path 124" d="M56.335,250.39a12.088,12.088,0,0,1-5.145-.907c-3.611-.938-6.491-1.855-9.039-2.666-6.462-2.058-10.363-3.3-18.083-2.308a1.723,1.723,0,0,1-.439-3.418c8.479-1.088,12.89.317,19.568,2.443,2.553.812,5.446,1.734,9.06,2.666a1.724,1.724,0,0,1,.452.189c1.629.972,9.069,1.012,14.717-2.553L96.57,225.424a1.611,1.611,0,0,1,.141-.08,1.437,1.437,0,0,0,.811-1.332,1.757,1.757,0,0,0-.972-1.567c-1.385-.707-3.8.021-6.447,1.948a1.741,1.741,0,0,1-.281.166l-15.612,7.334a1.723,1.723,0,1,1-1.465-3.119l15.467-7.265c5.094-3.648,8.387-2.906,9.9-2.133a5.187,5.187,0,0,1,2.852,4.641,4.85,4.85,0,0,1-2.619,4.36L69.266,246.749a25.127,25.127,0,0,1-12.931,3.642" transform="translate(-16.68 -164.904)" fill="#103b19"/>
    <path id="Path_125" data-name="Path 125" d="M42.236,214.991c-6.027,0-11.268-2.332-17.229-5.383a1.723,1.723,0,0,1,1.57-3.067c10.516,5.383,16.52,6.9,26.487,2.341.032-.015.065-.028.1-.041.635-.244,1.681-.79,1.54-1.694a1.238,1.238,0,0,0-1.024-1.04c-2.4-.143-4.321-.179-6.014-.211-6.7-.125-9.207-.172-17.648-6.427l-7.253-5.373c-.813-.6-3.936-1.073-7.007.176L2.372,199.711a1.723,1.723,0,0,1-1.3-3.192l13.385-5.44c3.628-1.475,8.177-1.367,10.356.248l7.253,5.373c7.556,5.6,9.273,5.631,15.661,5.75,1.727.032,3.684.069,6.154.216a4.634,4.634,0,0,1,4.224,3.951c.283,1.821-.532,4.195-3.657,5.419a29.139,29.139,0,0,1-12.214,2.955" transform="translate(0 -143.267)" fill="#103b19"/>
  </g>
</svg>
