<svg xmlns="http://www.w3.org/2000/svg" width="113.119" height="16.281" viewBox="0 0 113.119 16.281">
  <g id="Group_8" data-name="Group 8" transform="translate(-139.44 -760)">
    <path id="Star" d="M9,12.591l-5.29,3.69L5.585,10.11.44,6.219l6.449-.124L9,0l2.111,6.095,6.449.124L12.415,10.11l1.875,6.171Z" transform="translate(139 760)" fill="#f5a623"/>
    <path id="Star-2" data-name="Star" d="M9,12.591l-5.29,3.69L5.585,10.11.44,6.219l6.449-.124L9,0l2.111,6.095,6.449.124L12.415,10.11l1.875,6.171Z" transform="translate(163 760)" fill="#f5a623"/>
    <path id="Star-3" data-name="Star" d="M9,12.591l-5.29,3.69L5.585,10.11.44,6.219l6.449-.124L9,0l2.111,6.095,6.449.124L12.415,10.11l1.875,6.171Z" transform="translate(187 760)" fill="#f5a623"/>
    <path id="Star-4" data-name="Star" d="M9,12.591l-5.29,3.69L5.585,10.11.44,6.219l6.449-.124L9,0l2.111,6.095,6.449.124L12.415,10.11l1.875,6.171Z" transform="translate(211 760)" fill="#f5a623"/>
    <path id="Star-5" data-name="Star" d="M9,12.591l-5.29,3.69L5.585,10.11.44,6.219l6.449-.124L9,0l2.111,6.095,6.449.124L12.415,10.11l1.875,6.171Z" transform="translate(235 760)" fill="#f5a623"/>
  </g>
</svg>
