<svg id="Group_45" data-name="Group 45" xmlns="http://www.w3.org/2000/svg" xmlns:xlink="http://www.w3.org/1999/xlink" width="58.447" height="58.447" viewBox="0 0 58.447 58.447">
  <defs>
    <clipPath id="clip-path">
      <rect id="Rectangle_5" data-name="Rectangle 5" width="58.447" height="58.447" fill="#62c476"/>
    </clipPath>
  </defs>
  <g id="Group_44" data-name="Group 44" clip-path="url(#clip-path)">
    <path id="Path_70" data-name="Path 70" d="M45.085,58.447H12.857c-4.06,0-7.337-3.227-7.792-7.674L.007,1.346A1.221,1.221,0,0,1,1.222,0h56a1.221,1.221,0,0,1,1.215,1.347L53.382,50.269c-.489,4.738-3.979,8.178-8.3,8.178m-42.51-56L7.5,50.525C7.774,53.248,9.705,56,12.857,56H45.085c3.446,0,5.56-3.011,5.867-5.986l4.92-47.575Z" transform="translate(0 0)" fill="#62c476"/>
    <path id="Path_71" data-name="Path 71" d="M65.618,238.166H32.209a8.2,8.2,0,0,1-8.032-7.669,1.221,1.221,0,0,1,2.429-.257,5.815,5.815,0,0,0,5.6,5.484h33.41c3.6,0,5.808-3.014,6.127-5.99a1.222,1.222,0,0,1,2.429.26c-.507,4.736-4.105,8.173-8.556,8.173" transform="translate(-19.952 -188.744)" fill="#62c476"/>
    <path id="Path_72" data-name="Path 72" d="M63.855,66.117a1.22,1.22,0,0,1-.353-.052c-12.917-3.89-37.1-4.031-51.747-.3a1.222,1.222,0,0,1-.6-2.368c7.411-1.886,17.166-2.872,27.467-2.782,9.989.089,19.315,1.224,25.587,3.113a1.222,1.222,0,0,1-.352,2.391" transform="translate(-8.446 -50.031)" fill="#62c476"/>
    <path id="Path_73" data-name="Path 73" d="M39.428,108.8a1.68,1.68,0,0,1-.707-.155,1.882,1.882,0,0,1-1.044-1.681,3.558,3.558,0,0,1,.343-1.659c.664-1.443,1.923-2.132,2.994-1.639h0c1.071.493,1.366,1.9.7,3.341a3.562,3.562,0,0,1-1.038,1.339,2.081,2.081,0,0,1-1.25.455" transform="translate(-31.098 -85.448)" fill="#62c476"/>
    <path id="Path_74" data-name="Path 74" d="M151.849,98.375a1.68,1.68,0,0,1-.707-.155,1.882,1.882,0,0,1-1.044-1.681,3.752,3.752,0,0,1,1.381-3,1.8,1.8,0,0,1,3,1.382,3.753,3.753,0,0,1-1.381,3,2.081,2.081,0,0,1-1.25.455" transform="translate(-123.902 -76.842)" fill="#62c476"/>
    <path id="Path_75" data-name="Path 75" d="M210.158,182.777a1.7,1.7,0,0,1-.716-.158c-1.071-.493-1.365-1.9-.7-3.341a3.561,3.561,0,0,1,1.038-1.339,1.882,1.882,0,0,1,1.957-.3h0c1.07.493,1.365,1.9.7,3.34a2.72,2.72,0,0,1-2.279,1.8" transform="translate(-172.024 -146.514)" fill="#62c476"/>
    <path id="Path_76" data-name="Path 76" d="M263.734,102.729a1.68,1.68,0,0,1-.707-.155,1.882,1.882,0,0,1-1.044-1.681,3.753,3.753,0,0,1,1.381-3,1.8,1.8,0,0,1,3,1.382,3.753,3.753,0,0,1-1.381,3,2.081,2.081,0,0,1-1.25.455" transform="translate(-216.263 -80.436)" fill="#62c476"/>
    <path id="Path_77" data-name="Path 77" d="M134.835,221.882a1.68,1.68,0,0,1-.707-.155c-1.071-.493-1.366-1.9-.7-3.34a3.56,3.56,0,0,1,1.038-1.339,1.882,1.882,0,0,1,1.957-.3h0c1.071.493,1.365,1.9.7,3.341a3.561,3.561,0,0,1-1.038,1.339,2.081,2.081,0,0,1-1.25.455" transform="translate(-109.853 -178.798)" fill="#62c476"/>
    <path id="Path_78" data-name="Path 78" d="M78.61,146.891a2.72,2.72,0,0,1-2.278-1.8c-.664-1.443-.369-2.848.7-3.341h0c1.071-.493,2.33.2,2.994,1.639a3.561,3.561,0,0,1,.343,1.659,1.882,1.882,0,0,1-1.045,1.681,1.7,1.7,0,0,1-.716.158" transform="translate(-62.721 -116.887)" fill="#62c476"/>
    <path id="Path_79" data-name="Path 79" d="M211.115,106.9a2.079,2.079,0,0,1-1.25-.455,3.56,3.56,0,0,1-1.038-1.339c-.664-1.442-.369-2.847.7-3.341s2.33.2,2.994,1.639.369,2.847-.7,3.341a1.68,1.68,0,0,1-.707.155" transform="translate(-172.097 -83.877)" fill="#62c476"/>
    <path id="Path_80" data-name="Path 80" d="M267.982,183.1a2.08,2.08,0,0,1-1.25-.455,3.753,3.753,0,0,1-1.381-3,1.883,1.883,0,0,1,1.044-1.681c1.071-.493,2.33.2,2.994,1.639s.369,2.847-.7,3.341a1.68,1.68,0,0,1-.707.155" transform="translate(-219.045 -146.78)" fill="#62c476"/>
    <path id="Path_81" data-name="Path 81" d="M192.187,230.1a2.72,2.72,0,0,1-2.278-1.8c-.664-1.443-.369-2.847.7-3.341h0a1.882,1.882,0,0,1,1.957.3,3.753,3.753,0,0,1,1.381,3,1.883,1.883,0,0,1-1.044,1.681,1.7,1.7,0,0,1-.716.158" transform="translate(-156.479 -185.578)" fill="#62c476"/>
    <path id="Path_82" data-name="Path 82" d="M158.37,179.978a2.08,2.08,0,0,1-1.25-.455,3.56,3.56,0,0,1-1.038-1.339c-.664-1.442-.369-2.847.7-3.341s2.33.2,2.995,1.639.369,2.848-.7,3.341a1.68,1.68,0,0,1-.707.155" transform="translate(-128.555 -144.203)" fill="#62c476"/>
    <path id="Path_83" data-name="Path 83" d="M75.059,231.277a2.72,2.72,0,0,1-2.278-1.8c-.664-1.443-.369-2.847.7-3.341a1.882,1.882,0,0,1,1.957.3,3.752,3.752,0,0,1,1.381,3,1.882,1.882,0,0,1-1.044,1.681,1.7,1.7,0,0,1-.716.158" transform="translate(-59.789 -186.551)" fill="#62c476"/>
    <path id="Path_84" data-name="Path 84" d="M94.049,107.257a3.966,3.966,0,0,1-.674-.058c-1.565-.272-2.554-1.312-2.353-2.473h0a1.883,1.883,0,0,1,1.357-1.441,3.753,3.753,0,0,1,3.252.564,1.8,1.8,0,0,1-.564,3.255,3.266,3.266,0,0,1-1.017.153" transform="translate(-75.117 -85.135)" fill="#62c476"/>
    <path id="Path_85" data-name="Path 85" d="M178.773,142.362a4.075,4.075,0,0,1-.7-.062,3.556,3.556,0,0,1-1.561-.659,1.882,1.882,0,0,1-.792-1.814h0c.2-1.161,1.483-1.807,3.048-1.536s2.554,1.312,2.353,2.473a2.162,2.162,0,0,1-2.353,1.6" transform="translate(-145.04 -114.11)" fill="#62c476"/>
    <path id="Path_86" data-name="Path 86" d="M242.1,224.206a3.956,3.956,0,0,1-.675-.059,3.556,3.556,0,0,1-1.561-.659,1.8,1.8,0,0,1,.564-3.255,3.569,3.569,0,0,1,1.692-.095c1.565.272,2.554,1.312,2.353,2.473a1.883,1.883,0,0,1-1.357,1.442,3.263,3.263,0,0,1-1.017.153m-1.824-2.323h0Z" transform="translate(-197.335 -181.677)" fill="#62c476"/>
    <path id="Path_87" data-name="Path 87" d="M100.271,198.716a4.088,4.088,0,0,1-.7-.061A3.558,3.558,0,0,1,98.014,198a1.882,1.882,0,0,1-.792-1.814c.2-1.161,1.483-1.807,3.048-1.536s2.554,1.312,2.353,2.473a2.163,2.163,0,0,1-2.353,1.6m-1.845-2.326h0Z" transform="translate(-80.236 -160.63)" fill="#62c476"/>
    <path id="Path_88" data-name="Path 88" d="M46.116,180.616a2.163,2.163,0,0,1-2.353-1.6c-.2-1.161.788-2.2,2.353-2.473a3.558,3.558,0,0,1,1.692.095,1.8,1.8,0,0,1,.564,3.255,3.557,3.557,0,0,1-1.561.659,4.073,4.073,0,0,1-.7.062m.642-2.117h0Z" transform="translate(-36.106 -145.69)" fill="#62c476"/>
    <path id="Path_89" data-name="Path 89" d="M124.507,152.537a2.163,2.163,0,0,1-2.353-1.6c-.2-1.161.788-2.2,2.353-2.473a3.56,3.56,0,0,1,1.692.095,1.8,1.8,0,0,1,.564,3.255,3.556,3.556,0,0,1-1.561.659,4.072,4.072,0,0,1-.7.062m.642-2.117h0Z" transform="translate(-100.818 -122.511)" fill="#62c476"/>
    <path id="Path_90" data-name="Path 90" d="M240.074,145.419a2.163,2.163,0,0,1-2.353-1.6c-.2-1.162.788-2.2,2.353-2.473a3.56,3.56,0,0,1,1.692.095,1.8,1.8,0,0,1,.565,3.255,3.556,3.556,0,0,1-1.561.659,4.057,4.057,0,0,1-.7.062m.641-2.117h0Z" transform="translate(-196.218 -116.635)" fill="#62c476"/>
  </g>
</svg>
