<svg width="1012" height="1090" viewBox="0 0 1012 1090" fill="none" xmlns="http://www.w3.org/2000/svg">
<g clip-path="url(#clip0_4_2)">
<path d="M398.903 184.722C619.282 125.635 845.833 256.387 904.92 476.766C964.007 697.144 833.255 923.696 612.876 982.783C392.498 1041.87 165.946 911.117 106.859 690.739C47.7725 470.36 178.525 243.809 398.903 184.722Z" fill="#D1E8D8"/>
<path d="M306.687 38.5821C386.143 17.2786 467.825 64.4208 489.128 143.877C510.432 223.333 463.29 305.015 383.834 326.319C304.377 347.622 222.695 300.48 201.392 221.024C180.088 141.568 227.23 59.8856 306.687 38.5821Z" fill="#D1E8D8"/>
<path d="M210.659 243.53C262.305 229.682 315.399 260.325 329.246 311.971C343.093 363.618 312.451 416.711 260.804 430.559C209.158 444.406 156.064 413.764 142.217 362.117C128.37 310.47 159.012 257.377 210.659 243.53Z" fill="#D1E8D8"/>
<path d="M139.541 174.949C179.91 164.126 221.41 188.077 232.233 228.446C243.057 268.815 219.106 310.314 178.737 321.138C138.368 331.961 96.8682 308.01 86.0447 267.641C75.2212 227.272 99.1724 185.773 139.541 174.949Z" fill="#D1E8D8"/>
</g>
<defs>
<clipPath id="clip0_4_2">
<rect width="1011.82" height="1089.59" fill="white" transform="matrix(-1 0 0 1 1011.82 0)"/>
</clipPath>
</defs>
</svg>
