<svg id="Group_39" data-name="Group 39" xmlns="http://www.w3.org/2000/svg" xmlns:xlink="http://www.w3.org/1999/xlink" width="56.53" height="56" viewBox="0 0 56.53 56">
  <defs>
    <clipPath id="clip-path">
      <rect id="Rectangle_2" data-name="Rectangle 2" width="56.53" height="56" fill="#62c476"/>
    </clipPath>
  </defs>
  <g id="Group_38" data-name="Group 38" clip-path="url(#clip-path)">
    <path id="Path_45" data-name="Path 45" d="M11.781,81.586H9.59A9.6,9.6,0,0,1,0,72V46.953a9.6,9.6,0,0,1,9.59-9.59h2.191a9.615,9.615,0,0,1,9.589,9.59V72a9.6,9.6,0,0,1-9.589,9.59M9.59,39.569a7.392,7.392,0,0,0-7.383,7.383V72A7.392,7.392,0,0,0,9.59,79.379h2.191A7.392,7.392,0,0,0,19.164,72V46.953a7.409,7.409,0,0,0-7.383-7.383Z" transform="translate(0 -31.474)" fill="#62c476"/>
    <path id="Path_46" data-name="Path 46" d="M30.761,114.339a1.432,1.432,0,0,1-.854-.327c-.038-.028-.084-.062-.143-.1a16.31,16.31,0,0,1-5.434-5.684,1.084,1.084,0,0,1-.057-.112,4.275,4.275,0,0,1,.233-4.131,4.18,4.18,0,0,1,3.594-1.864,3.745,3.745,0,0,1,2.669.856,3.745,3.745,0,0,1,2.669-.856,4.342,4.342,0,0,1,3.463,1.689,4.021,4.021,0,0,1,.636,3.561c-.858,2.993-4.66,5.783-5.8,6.567l-.118.083a1.462,1.462,0,0,1-.852.319m.51-2.063h0Zm-5-5.111a13.919,13.919,0,0,0,4.5,4.754c1.9-1.347,4.151-3.427,4.647-5.158a1.81,1.81,0,0,0-.277-1.625,2.125,2.125,0,0,0-1.7-.811c-1.226,0-1.294.32-1.419.9a1.919,1.919,0,0,1-.468,1.028,1.1,1.1,0,0,1-1.563,0,1.92,1.92,0,0,1-.468-1.028c-.125-.581-.194-.9-1.419-.9a2.015,2.015,0,0,0-1.744.861,2.1,2.1,0,0,0-.089,1.979" transform="translate(-20.094 -86.025)" fill="#62c476"/>
    <path id="Path_47" data-name="Path 47" d="M59.329,34.378a1.1,1.1,0,0,1-1.1-1.1V12.166a9.971,9.971,0,0,0-9.959-9.959H33.416a10.054,10.054,0,0,0-9.268,6.324A1.1,1.1,0,0,1,22.1,7.719,12.277,12.277,0,0,1,33.416,0H48.266A12.179,12.179,0,0,1,60.432,12.166V33.274a1.1,1.1,0,0,1-1.1,1.1" transform="translate(-18.548)" fill="#62c476"/>
    <path id="Path_48" data-name="Path 48" d="M46.906,302.179H32.055a12.023,12.023,0,0,1-11.6-8.518,1.1,1.1,0,1,1,2.111-.642,9.829,9.829,0,0,0,9.493,6.954H46.906c4.885,0,8.688-2.694,9.688-6.862a1.1,1.1,0,1,1,2.145.515c-1.246,5.2-5.891,8.554-11.833,8.554" transform="translate(-17.188 -246.179)" fill="#62c476"/>
    <path id="Path_49" data-name="Path 49" d="M143.24,34.376a1.1,1.1,0,0,1-1.1-1.1V12.166a9.971,9.971,0,0,0-9.959-9.959H118.115A10.04,10.04,0,0,0,109.6,7.025a9.907,9.907,0,0,0-1.111,2.6,1.1,1.1,0,0,1-2.133-.566,12.112,12.112,0,0,1,1.358-3.185A12.259,12.259,0,0,1,118.115,0h14.063a12.18,12.18,0,0,1,12.166,12.166V33.273a1.1,1.1,0,0,1-1.1,1.1" transform="translate(-89.56)" fill="#62c476"/>
    <path id="Path_50" data-name="Path 50" d="M131.847,298.154H117.784a12.21,12.21,0,0,1-11.831-9.334,1.1,1.1,0,0,1,2.145-.516,10.005,10.005,0,0,0,9.686,7.644h14.063c5.024,0,8.852-2.811,9.754-7.16a1.1,1.1,0,0,1,2.161.448c-1.106,5.335-5.894,8.919-11.915,8.919" transform="translate(-89.229 -242.154)" fill="#62c476"/>
    <path id="Path_51" data-name="Path 51" d="M36.156,223.819a5.654,5.654,0,1,1,5.654-5.654,5.661,5.661,0,0,1-5.654,5.654m0-9.1a3.448,3.448,0,1,0,3.448,3.448,3.452,3.452,0,0,0-3.448-3.448" transform="translate(-25.695 -179.018)" fill="#62c476"/>
    <path id="Path_52" data-name="Path 52" d="M260.622,242.828H244.688a1.1,1.1,0,0,1-1.1-1.1v-5.311a1.1,1.1,0,0,1,1.1-1.1h15.933a1.1,1.1,0,0,1,1.1,1.1v5.311a1.1,1.1,0,0,1-1.1,1.1m-14.83-2.206h13.727v-3.1H245.791Z" transform="translate(-205.195 -198.225)" fill="#62c476"/>
    <path id="Path_53" data-name="Path 53" d="M296.215,108.4a1.1,1.1,0,0,1-1.1-1.1v-.029a2.669,2.669,0,0,1,.01-.327,1.1,1.1,0,0,1,2.2.206c0,.032,0,.075,0,.1v.047a1.1,1.1,0,0,1-1.1,1.1m1.1-1.244c0,.011,0,.022,0,.033,0-.009,0-.02,0-.033" transform="translate(-248.601 -89.257)" fill="#62c476"/>
    <path id="Path_54" data-name="Path 54" d="M296.192,146.344a1.1,1.1,0,0,1-1.1-1.1v-.028a2.638,2.638,0,0,1,.011-.337,1.1,1.1,0,0,1,2.2.217c0,.032,0,.073,0,.1v.045a1.1,1.1,0,0,1-1.1,1.1m1.1-1.239c0,.012,0,.024,0,.037,0-.009,0-.022,0-.037" transform="translate(-248.582 -121.226)" fill="#62c476"/>
    <path id="Path_55" data-name="Path 55" d="M296.169,184.293a1.1,1.1,0,0,1-1.1-1.1v-.029a2.619,2.619,0,0,1,.01-.332,1.1,1.1,0,0,1,2.2.211c0,.032,0,.074,0,.1v.046a1.1,1.1,0,0,1-1.1,1.1m1.1-1.241,0,.035c0-.009,0-.021,0-.035" transform="translate(-248.562 -153.194)" fill="#62c476"/>
  </g>
</svg>
