<svg xmlns="http://www.w3.org/2000/svg" xmlns:xlink="http://www.w3.org/1999/xlink" width="85.486" height="85.486" viewBox="0 0 85.486 85.486">
  <defs>
    <clipPath id="clip-path">
      <rect id="Rectangle_7" data-name="Rectangle 7" width="85.486" height="85.486" fill="#103b19"/>
    </clipPath>
  </defs>
  <g id="Group_52" data-name="Group 52" clip-path="url(#clip-path)">
    <path id="Path_92" data-name="Path 92" d="M108.622,246.178h-.133a1.6,1.6,0,0,1,0-3.209h.133a1.6,1.6,0,1,1,0,3.209" transform="translate(-82.388 -187.284)" fill="#103b19"/>
    <path id="Path_93" data-name="Path 93" d="M42.726,85.486c-3.75,0-6-3.4-7.978-6.4-.2-.3-.392-.594-.589-.887-1.734-2.579-3.058-4.053-4.681-3.965a37.845,37.845,0,0,0-4.708.669c-4.268.79-8.683,1.607-12.246-1.929-2.671-2.651-1.853-6.654-1.13-10.186.071-.349.143-.7.211-1.044.6-3.049.707-5.027-.507-6.113a37.8,37.8,0,0,0-3.8-2.856C3.717,50.312.019,47.769,0,42.749c-.014-3.763,3.395-6.015,6.4-8,.3-.2.594-.392.887-.589,2.579-1.733,4.054-3.055,3.964-4.681a37.794,37.794,0,0,0-.669-4.708C9.8,20.5,8.979,16.086,12.515,12.524c2.651-2.67,6.654-1.853,10.185-1.131.349.071.7.143,1.045.211,3.049.6,5.028.707,6.113-.506a37.772,37.772,0,0,0,2.856-3.8c2.46-3.577,5-7.276,10.023-7.295h.023c3.749,0,6,3.4,7.978,6.4.2.3.393.595.59.888,1.733,2.579,3.057,4.055,4.681,3.964a37.835,37.835,0,0,0,4.708-.669c4.269-.79,8.683-1.607,12.246,1.929,2.67,2.651,1.852,6.653,1.13,10.184-.072.35-.143.7-.211,1.046-.6,3.05-.707,5.027.507,6.113a37.805,37.805,0,0,0,3.8,2.856c3.577,2.46,7.276,5,7.295,10.023.014,3.763-3.395,6.014-6.4,8-.3.2-.595.393-.888.59-2.579,1.733-4.055,3.055-3.965,4.681a37.79,37.79,0,0,0,.67,4.708c.79,4.269,1.607,8.683-1.929,12.246-2.651,2.671-6.654,1.853-10.185,1.13-.349-.071-.7-.143-1.045-.211-3.049-.6-5.027-.707-6.113.506a37.825,37.825,0,0,0-2.856,3.8c-2.46,3.577-5,7.276-10.023,7.295ZM29.62,71.019c3.579,0,5.837,3.358,7.2,5.387.2.3.4.6.6.909,1.685,2.552,3.278,4.963,5.3,4.963h.009c3.178-.012,4.879-2.251,7.391-5.9a40.254,40.254,0,0,1,3.109-4.125c2.516-2.81,6.651-2,9.121-1.515.355.07.713.143,1.07.216,3,.614,5.835,1.193,7.265-.247,2.239-2.256,1.858-5.042,1.051-9.4a40.235,40.235,0,0,1-.718-5.115c-.208-3.766,3.289-6.117,5.379-7.521.3-.2.6-.4.909-.6,2.556-1.688,4.969-3.283,4.962-5.312-.012-3.178-2.251-4.879-5.9-7.391a40.236,40.236,0,0,1-4.125-3.109c-2.81-2.516-2-6.651-1.515-9.121.069-.356.143-.713.216-1.071.613-3,1.192-5.835-.247-7.264-2.256-2.239-5.042-1.858-9.4-1.051a40.275,40.275,0,0,1-5.115.718c-.108.006-.215.009-.32.009-3.58,0-5.837-3.358-7.2-5.387-.2-.3-.4-.605-.6-.91-1.685-2.552-3.278-4.962-5.3-4.962h-.01l-.006-1.6.006,1.6c-3.178.012-4.879,2.252-7.391,5.9a40.159,40.159,0,0,1-3.109,4.125c-2.515,2.81-6.651,2-9.121,1.515-.356-.07-.713-.143-1.071-.216-3-.614-5.835-1.193-7.265.247-2.239,2.256-1.858,5.042-1.052,9.4a40.2,40.2,0,0,1,.718,5.115c.208,3.766-3.289,6.117-5.378,7.521-.3.2-.6.4-.909.6-2.556,1.688-4.97,3.283-4.963,5.312.012,3.178,2.251,4.879,5.9,7.391a40.262,40.262,0,0,1,4.125,3.109c2.81,2.516,2,6.651,1.515,9.121-.07.355-.143.713-.216,1.07-.614,3-1.193,5.836.247,7.265,2.255,2.239,5.042,1.858,9.4,1.051a40.19,40.19,0,0,1,5.115-.718q.162-.009.32-.009" transform="translate(0)" fill="#103b19"/>
    <path id="Path_94" data-name="Path 94" d="M164.224,124.017c-3.955,0-7.595-2.306-10.019-3.842-.5-.316-.929-.589-1.29-.8a1.6,1.6,0,1,1,1.6-2.783c.422.242.9.546,1.41.868,2.143,1.357,5.381,3.411,8.453,3.342l12.489-.274a1.977,1.977,0,0,0,1.449-.584,1.5,1.5,0,0,0,.364-1.165,2.062,2.062,0,0,0-.393-1.057c-.143-.058-.355-.131-.5-.181a4.977,4.977,0,0,1-.985-.416,1.6,1.6,0,0,1,.493-2.93,7.028,7.028,0,0,1,1.09-.1c.243-.012.657-.033.885-.054a2.062,2.062,0,0,0,1.062-1.956v-.01a2.035,2.035,0,0,0-.515-1.2c-.12-.038-.273-.083-.379-.114a4.136,4.136,0,0,1-1.023-.386,1.6,1.6,0,0,1,.489-2.932,5.2,5.2,0,0,1,.958-.078c.142,0,.375-.012.53-.022a2.063,2.063,0,0,0,1.055-1.951.85.85,0,0,0-.377-.5l-1.323-.839a1.6,1.6,0,0,1,1-2.953l.319.027h.005c.2,0,.772-.048.973-.08a2.359,2.359,0,0,0,1.455-2.444c-.157-1.09-1.348-1.305-2.3-1.3l-14.927.129a1.58,1.58,0,0,1-1.393-.784,1.6,1.6,0,0,1-.024-1.6q.386-.7.767-1.369c2.768-4.911,4.767-8.459,2.628-14.089a1.61,1.61,0,0,0-.958-.658,2.071,2.071,0,0,0-1.15-.092c-2.226,8.162-3.781,9.815-7.909,14.205-.945,1-2.015,2.143-3.275,3.555a1.6,1.6,0,1,1-2.394-2.136c1.288-1.443,2.373-2.6,3.332-3.617,3.953-4.2,5.145-5.472,7.175-12.942a3.236,3.236,0,0,1,3.19-2.313c1.86-.092,4.237.88,4.988,2.857,2.485,6.54.349,11.1-2.239,15.747l12.161-.105h.08c3.569,0,5.144,2.087,5.427,4.052a5.635,5.635,0,0,1-2.532,5.432,3.662,3.662,0,0,1,.508,1.576,5.28,5.28,0,0,1-1.836,4.4,5.226,5.226,0,0,1,.724,2.292c0,.005,0,.01,0,.015a5.281,5.281,0,0,1-2.219,4.682,5.264,5.264,0,0,1,.562,1.993,4.713,4.713,0,0,1-1.188,3.563,5.144,5.144,0,0,1-3.754,1.635l-12.489.274-.222,0" transform="translate(-117.248 -58.272)" fill="#103b19"/>
    <path id="Path_95" data-name="Path 95" d="M93.786,184.073h-8.4a3.257,3.257,0,0,1-3.253-3.253V157.749a3.257,3.257,0,0,1,3.253-3.253h8.4a3.257,3.257,0,0,1,3.253,3.253V180.82a3.257,3.257,0,0,1-3.253,3.253m-8.4-26.368a.051.051,0,0,0-.045.044V180.82a.05.05,0,0,0,.045.044h8.4a.05.05,0,0,0,.044-.044V157.749a.05.05,0,0,0-.044-.044Z" transform="translate(-63.306 -119.088)" fill="#103b19"/>
  </g>
</svg>
