<svg xmlns="http://www.w3.org/2000/svg" width="42.884" height="42.884" viewBox="0 0 42.884 42.884">
  <g id="Group_120" data-name="Group 120" transform="translate(-323.433 -157.45)">
    <circle id="Ellipse_2" data-name="Ellipse 2" cx="21.442" cy="21.442" r="21.442" transform="translate(323.433 157.45)" fill="#1a1818"/>
    <path id="Path_192" data-name="Path 192" d="M340.495,170.609l-.006-.026-.008-.028-2.155-7.384a1.923,1.923,0,0,0-.085-.256,1.433,1.433,0,0,0-.532-2.764h-5.695a1.433,1.433,0,0,0-.532,2.764,1.937,1.937,0,0,0-.085.256l-2.155,7.384-.009.028-.006.026a16.15,16.15,0,0,0-.347,4.378v8.532a4.161,4.161,0,0,0,4.157,4.154h3.648a4.161,4.161,0,0,0,4.157-4.154v-8.14l.011-.4A15.688,15.688,0,0,0,340.495,170.609Zm-1.265,5.419v7.094a2.779,2.779,0,0,1-2.781,2.778h-3.176a2.779,2.779,0,0,1-2.781-2.778v-7.35c-.009-.4-.02-.844-.009-1.331l.071.026c.08.026.58.162.594.165a5.334,5.334,0,0,0,1.842.077,14.9,14.9,0,0,0,3.926-1.686,3.8,3.8,0,0,1,1.74-.441,3.57,3.57,0,0,1,.406.057A14.955,14.955,0,0,1,339.229,176.028Z" transform="translate(10.008 4.98)" fill="#fff"/>
  </g>
</svg>
