<svg id="Group_41" data-name="Group 41" xmlns="http://www.w3.org/2000/svg" xmlns:xlink="http://www.w3.org/1999/xlink" width="54.205" height="56" viewBox="0 0 54.205 56">
  <defs>
    <clipPath id="clip-path">
      <rect id="Rectangle_3" data-name="Rectangle 3" width="54.205" height="56" fill="#62c476"/>
    </clipPath>
  </defs>
  <g id="Group_40" data-name="Group 40" clip-path="url(#clip-path)">
    <path id="Path_56" data-name="Path 56" d="M98.193,16.807c-4.37,0-9.552-.436-11.471-2.327a2.735,2.735,0,0,1-.866-1.971l0-.306c0-.023,0-.046,0-.068a12.364,12.364,0,0,1,3.982-8.57,14,14,0,0,1,18.669,0,12.786,12.786,0,0,1,3.96,8.582c0,.022,0,.044,0,.067l0,.277c0,.005,0,.011,0,.017,0,1.978-1.244,3.26-3.7,3.809a38.756,38.756,0,0,1-7.4.46c-.711,0-1.446.01-2.2.021-.324,0-.656.007-.991.007M88.108,12.266l0,.258c0,.043,0,.162.2.355.884.872,4.2,1.768,10.851,1.673.76-.011,1.5-.016,2.217-.021a37.7,37.7,0,0,0,6.921-.406c1.929-.432,1.941-1.165,1.941-1.607l0-.261c-.358-5.8-5-10.007-11.059-10.007-5.975,0-10.833,4.394-11.059,10,0,0,0,.009,0,.013m-1.123-.059h0Z" transform="translate(-72.065)" fill="#62c476"/>
    <path id="Path_57" data-name="Path 57" d="M159.919,44.58a1.125,1.125,0,0,1-1.079-1.441l2.713-9.242a1.124,1.124,0,0,1,2.158.634L161,43.772a1.125,1.125,0,0,1-1.078.808" transform="translate(-133.287 -27.773)" fill="#62c476"/>
    <path id="Path_58" data-name="Path 58" d="M45.989,78.086H8.217A8.226,8.226,0,0,1,0,69.87V34.53a8.226,8.226,0,0,1,8.217-8.217h4.494a1.124,1.124,0,1,1,0,2.249H8.217A5.975,5.975,0,0,0,2.249,34.53V69.87a5.975,5.975,0,0,0,5.968,5.968H45.989a5.975,5.975,0,0,0,5.968-5.968V34.53a5.975,5.975,0,0,0-5.968-5.968H41.267a1.124,1.124,0,0,1,0-2.249h4.721a8.226,8.226,0,0,1,8.217,8.217V69.87a8.226,8.226,0,0,1-8.217,8.217" transform="translate(0 -22.086)" fill="#62c476"/>
    <path id="Path_59" data-name="Path 59" d="M64.792,96.069H30.908c-3.934,0-6.191-2.256-6.191-6.19V59c0-3.934,2.257-6.191,6.191-6.191h1.176a1.124,1.124,0,0,1,0,2.249H30.908c-2.69,0-3.942,1.253-3.942,3.942V89.879c0,2.689,1.253,3.941,3.942,3.941H64.792c2.689,0,3.942-1.252,3.942-3.941V59c0-2.689-1.253-3.942-3.942-3.942H63.3a1.124,1.124,0,0,1,0-2.249h1.492c3.934,0,6.191,2.257,6.191,6.191V89.879c0,3.934-2.257,6.19-6.191,6.19" transform="translate(-20.747 -44.324)" fill="#62c476"/>
  </g>
</svg>
