<svg xmlns="http://www.w3.org/2000/svg" xmlns:xlink="http://www.w3.org/1999/xlink" width="84.551" height="77.529" viewBox="0 0 84.551 77.529">
  <defs>
    <clipPath id="clip-path">
      <rect id="Rectangle_8" data-name="Rectangle 8" width="84.551" height="77.529" fill="#103b19"/>
    </clipPath>
  </defs>
  <g id="Group_54" data-name="Group 54" clip-path="url(#clip-path)">
    <path id="Path_96" data-name="Path 96" d="M122.664,59.433a7.015,7.015,0,0,1-6.8-5.324L105.855,13.561a1.6,1.6,0,0,1,1.173-1.942L152.815.315a1.6,1.6,0,0,1,1.942,1.173l11.3,45.786a1.6,1.6,0,0,1-1.173,1.942L124.342,59.227a6.99,6.99,0,0,1-1.678.205M109.354,14.35l9.627,38.99a3.8,3.8,0,0,0,4.592,2.773l38.989-9.627L152.026,3.814Z" transform="translate(-81.558 -0.206)" fill="#103b19"/>
    <path id="Path_97" data-name="Path 97" d="M107,282.109a8.351,8.351,0,0,1-1.986-16.458h0A8.349,8.349,0,1,1,107,282.109m-1.217-13.343a5.14,5.14,0,1,0,6.223,3.758,5.146,5.146,0,0,0-6.223-3.758Z" transform="translate(-76.056 -204.579)" fill="#103b19"/>
    <path id="Path_98" data-name="Path 98" d="M27.06,56.2a1.605,1.605,0,0,1-1.555-1.214L12.5,3.228,1.6,3.208A1.6,1.6,0,0,1,1.6,0h0L13.754.022a1.6,1.6,0,0,1,1.553,1.213l13.31,52.97a1.606,1.606,0,0,1-1.557,2" transform="translate(0 0.001)" fill="#103b19"/>
    <path id="Path_99" data-name="Path 99" d="M193.924,253.746a1.6,1.6,0,0,1-.383-3.162l35.246-8.7a1.6,1.6,0,1,1,.769,3.115l-35.247,8.7a1.608,1.608,0,0,1-.386.047" transform="translate(-148.243 -186.408)" fill="#103b19"/>
    <path id="Path_100" data-name="Path 100" d="M224.677,107.624a1.6,1.6,0,0,1-1.556-1.22l-4.664-18.888a1.6,1.6,0,0,1,3.115-.769l4.664,18.888a1.606,1.606,0,0,1-1.559,1.989" transform="translate(-168.353 -65.925)" fill="#103b19"/>
    <path id="Path_101" data-name="Path 101" d="M192.126,99.479a1.6,1.6,0,0,1-1.377-2.425l6.391-10.742a1.6,1.6,0,0,1,2.217-.548L210.013,92.3a1.6,1.6,0,0,1-1.677,2.736l-9.27-5.683-5.56,9.345a1.6,1.6,0,0,1-1.38.784" transform="translate(-146.858 -65.926)" fill="#103b19"/>
  </g>
</svg>
