<svg id="Group_43" data-name="Group 43" xmlns="http://www.w3.org/2000/svg" xmlns:xlink="http://www.w3.org/1999/xlink" width="55.974" height="56" viewBox="0 0 55.974 56">
  <defs>
    <clipPath id="clip-path">
      <rect id="Rectangle_4" data-name="Rectangle 4" width="55.974" height="56" fill="#62c476"/>
    </clipPath>
  </defs>
  <g id="Group_42" data-name="Group 42" clip-path="url(#clip-path)">
    <path id="Path_60" data-name="Path 60" d="M35.617,53.01H11.23a2.973,2.973,0,0,1-2.97-2.97V48.594a2.973,2.973,0,0,1,2.97-2.97H35.617a2.973,2.973,0,0,1,2.97,2.97V50.04a2.973,2.973,0,0,1-2.97,2.97M11.23,47.789a.816.816,0,0,0-.8.8V50.04a.816.816,0,0,0,.8.8H35.617a.816.816,0,0,0,.8-.8V48.594a.806.806,0,0,0-.8-.8Z" transform="translate(-6.983 -38.568)" fill="#62c476"/>
    <path id="Path_61" data-name="Path 61" d="M23.668,157.281H5.649A5.656,5.656,0,0,1,0,151.632V125.657a5.656,5.656,0,0,1,5.649-5.649H27.232a5.656,5.656,0,0,1,5.649,5.649v5a1.083,1.083,0,1,1-2.165,0v-5a3.488,3.488,0,0,0-3.484-3.484H5.649a3.488,3.488,0,0,0-3.484,3.484v25.975a3.488,3.488,0,0,0,3.484,3.484H23.668a1.083,1.083,0,0,1,0,2.165" transform="translate(0 -101.448)" fill="#62c476"/>
    <path id="Path_62" data-name="Path 62" d="M131.858,15.781a1.083,1.083,0,0,1-1.065-1.282l1.095-5.856a1.083,1.083,0,1,1,2.128.4L132.921,14.9a1.083,1.083,0,0,1-1.063.884" transform="translate(-110.549 -6.559)" fill="#62c476"/>
    <path id="Path_63" data-name="Path 63" d="M85.192,118.235a1.084,1.084,0,0,1-1.069-1.265l4.824-28.275,1.5-8.425a1.083,1.083,0,1,1,2.132.379l-1.5,8.417-4.823,28.268a1.083,1.083,0,0,1-1.066.9" transform="translate(-71.1 -67.101)" fill="#62c476"/>
    <path id="Path_64" data-name="Path 64" d="M138.936,3.365a1.083,1.083,0,0,1-.068-2.163L157.741,0a1.083,1.083,0,1,1,.137,2.161l-18.872,1.2-.07,0" transform="translate(-116.535 0)" fill="#62c476"/>
    <path id="Path_65" data-name="Path 65" d="M26.648,162.189a9.133,9.133,0,0,1-3.244-.844,8.058,8.058,0,0,0-2.556-.719,6.011,6.011,0,0,0-2.3.669,7.263,7.263,0,0,1-3.067.811A8.42,8.42,0,0,1,12.2,161.1a6.22,6.22,0,0,0-1.919-.686,2.985,2.985,0,0,0-1.5.646,3.573,3.573,0,0,1-2.057.781,1.083,1.083,0,0,1,.045-2.164h.04a3.518,3.518,0,0,0,.8-.437,4.733,4.733,0,0,1,2.746-.99,7.441,7.441,0,0,1,2.767.889,6.829,6.829,0,0,0,2.408.808,5.765,5.765,0,0,0,2.166-.636,7.945,7.945,0,0,1,3.133-.845h.038a9.522,9.522,0,0,1,3.331.869,7.441,7.441,0,0,0,2.474.693,5.167,5.167,0,0,0,2.171-.78,6.353,6.353,0,0,1,2.622-.916,8.732,8.732,0,0,1,3.319.86,7.491,7.491,0,0,0,1.7.553,1.083,1.083,0,1,1,.263,2.149,6.2,6.2,0,0,1-2.76-.69,7.805,7.805,0,0,0-2.421-.709,4.849,4.849,0,0,0-1.716.67,6.932,6.932,0,0,1-3.152,1.027h-.047" transform="translate(-4.809 -133.77)" fill="#62c476"/>
    <path id="Path_66" data-name="Path 66" d="M173.938,95.1a1.083,1.083,0,0,1-1.083-1.083V90.655a1.083,1.083,0,1,1,2.165,0v3.363a1.083,1.083,0,0,1-1.083,1.083" transform="translate(-146.122 -75.719)" fill="#62c476"/>
    <path id="Path_67" data-name="Path 67" d="M26.839,95.1a1.083,1.083,0,0,1-1.083-1.083V90.655a1.083,1.083,0,1,1,2.165,0v3.363A1.083,1.083,0,0,1,26.839,95.1" transform="translate(-21.773 -75.719)" fill="#62c476"/>
    <path id="Path_68" data-name="Path 68" d="M200.826,205.384A9.061,9.061,0,0,1,196.141,204a1.083,1.083,0,1,1,1.117-1.855,6.31,6.31,0,0,0,5.293.811c2.673-.835,5.162-3.668,7.2-8.192a25.667,25.667,0,0,0,1.091-3.268,40.56,40.56,0,0,1,2.424-6.7,27.614,27.614,0,0,1-8.469.583c-2.975-.121-5.545-.227-7.626,1.188-5.458,3.711-5.446,7.679-4.475,10.353a1.083,1.083,0,1,1-2.035.739c-1.009-2.781-1.664-8.152,5.293-12.882,2.672-1.817,5.713-1.692,8.932-1.561s6.556.268,10.216-1.348a1.083,1.083,0,0,1,1.366,1.547,34.1,34.1,0,0,0-3.546,8.679,27.11,27.11,0,0,1-1.2,3.556c-2.331,5.177-5.2,8.33-8.527,9.37a7.915,7.915,0,0,1-2.37.364" transform="translate(-160.646 -153.664)" fill="#62c476"/>
    <path id="Path_69" data-name="Path 69" d="M148.581,246.477h-.012a1.083,1.083,0,0,1-.977-.643l-5.681-12.8a1.083,1.083,0,1,1,1.979-.878l4.739,10.679a31.991,31.991,0,0,1,2.339-4,43.948,43.948,0,0,1,13.081-13.325,1.083,1.083,0,0,1,1.207,1.8,41.454,41.454,0,0,0-12.5,12.746l-.027.039a39.3,39.3,0,0,0-3.171,5.764,1.082,1.082,0,0,1-.979.621" transform="translate(-119.885 -190.477)" fill="#62c476"/>
  </g>
</svg>
