<svg xmlns="http://www.w3.org/2000/svg" width="43.037" height="43.036" viewBox="0 0 43.037 43.036">
  <g id="Group_9" data-name="Group 9" transform="translate(-316 -797.001)">
    <path id="Path_1" data-name="Path 1" d="M43.037,21.519A21.518,21.518,0,1,1,21.519,0,21.518,21.518,0,0,1,43.037,21.519" transform="translate(316 797)" fill="#231f20"/>
    <path id="Path_2" data-name="Path 2" d="M29.138,19.114a7.371,7.371,0,0,0-7.314,6.46V20.183a7.37,7.37,0,0,0,7.314-7.37,7.371,7.371,0,0,0-7.314,6.459V17.223a7.372,7.372,0,0,0-.306-10.1,7.371,7.371,0,0,0-.305,10.1v2.05a7.372,7.372,0,0,0-7.314-6.46,7.37,7.37,0,0,0,7.314,7.37v5.392A7.372,7.372,0,0,0,13.9,19.114a7.371,7.371,0,0,0,7.314,7.371v5.392A7.372,7.372,0,0,0,13.9,25.416a7.371,7.371,0,0,0,7.314,7.371V35.44c0,.339.137.474.305.474s.306-.135.306-.474V32.787a7.371,7.371,0,0,0,7.314-7.371,7.371,7.371,0,0,0-7.314,6.46V26.485a7.371,7.371,0,0,0,7.314-7.371" transform="translate(316 797)" fill="#fff"/>
  </g>
</svg>
