<svg xmlns="http://www.w3.org/2000/svg" width="42.885" height="42.884" viewBox="0 0 42.885 42.884">
  <g id="Ohne_Genetic" data-name="Ohne Genetic" transform="translate(-498 -798)">
    <path id="Path_3" data-name="Path 3" d="M42.885,21.442A21.442,21.442,0,1,1,21.443,0,21.442,21.442,0,0,1,42.885,21.442" transform="translate(498 798)" fill="#231f20"/>
    <path id="Path_4" data-name="Path 4" d="M20.6,12.9a44.6,44.6,0,0,1,4.031,3.483H18.9c.668-.681,1.407-1.338,2.157-1.966-.342-.277-.682-.548-1.013-.811l-.425-.338c-2.694,2.289-5.236,4.993-5.236,8.171,0,4.044,4.116,7.319,7.423,9.952,1.664,1.325,3.736,2.974,3.736,3.738h1.806c0-1.635-1.95-3.187-4.418-5.151A44.31,44.31,0,0,1,18.9,26.5h5.736c-.668.681-1.407,1.339-2.157,1.967.343.277.683.548,1.013.811l.425.338c2.694-2.29,5.236-4.993,5.236-8.171,0-4.044-4.115-7.32-7.422-9.952-1.665-1.325-3.737-2.974-3.737-3.738H16.184c0,1.635,1.949,3.187,4.417,5.151m6.642,9.442a6.61,6.61,0,0,1-1.088,2.347H17.372a6.634,6.634,0,0,1-1.09-2.347Zm-1.089-4.153a6.616,6.616,0,0,1,1.09,2.347H16.283a6.628,6.628,0,0,1,1.088-2.347Zm-8.165,16.94H16.184c0-1.407,1.443-2.752,3.418-4.351.484.4.968.786,1.438,1.161-1.5,1.2-3.051,2.528-3.051,3.19m7.548-27.38h1.806c0,1.407-1.444,2.752-3.419,4.351-.484-.4-.967-.786-1.437-1.161,1.5-1.2,3.05-2.528,3.05-3.19" transform="translate(498 798)" fill="#fff"/>
  </g>
</svg>
