<svg xmlns="http://www.w3.org/2000/svg" width="689.001" height="931" viewBox="0 0 689.001 931">
  <path id="Union_8" data-name="Union 8" d="M-2070-5369a310.54,310.54,0,0,1,10.031-78.521A180.174,180.174,0,0,1-2129-5589.5a180.043,180.043,0,0,1,60.013-134.4A179.727,179.727,0,0,1-2090-5808.5,180.5,180.5,0,0,1-1909.5-5989a180.584,180.584,0,0,1,170.421,120.883A234.131,234.131,0,0,1-1675-5877c129.234,0,234,104.765,234,234a232.917,232.917,0,0,1-42.256,134.164A308.651,308.651,0,0,1-1450-5369c0,171.208-138.792,310-310,310S-2070-5197.792-2070-5369Z" transform="translate(2129.5 5989.5)" fill="#d1e8d8" stroke="rgba(0,0,0,0)" stroke-width="1"/>
</svg>
