<svg xmlns="http://www.w3.org/2000/svg" width="42.885" height="42.884" viewBox="0 0 42.885 42.884">
  <g id="Vegan" transform="translate(-135 -798)">
    <path id="Path_5" data-name="Path 5" d="M42.885,21.442A21.442,21.442,0,1,1,21.443,0,21.442,21.442,0,0,1,42.885,21.442" transform="translate(135 798)" fill="#231f20"/>
    <path id="Path_6" data-name="Path 6" d="M22.126,29.165c-4.218-5.226-7.066-5.1-7.066-5.1,5.786,3.061,5.86,7.042,5.86,7.042-5.749,5.832-12.812-9.619-12.812-9.619,14.453-2.251,14.023,7.454,14.023,7.454Z" transform="translate(135 798)" fill="#fff"/>
    <path id="Path_7" data-name="Path 7" d="M23.292,19.8S27.581,13.6,17.165,9.115c0,0-1.742,13.057,4.438,11.6,0,0,1.6-2.645-.939-7.042,0,0,1.92,1.094,2.532,6.266Z" transform="translate(135 798)" fill="#fff"/>
    <path id="Path_8" data-name="Path 8" d="M22.736,29.468c3.9-7.069,7.3-7.516,7.3-7.516-6.213,4.832-5.469,9.564-5.469,9.564,8.025,5.7,13.164-14.068,13.164-14.068C20.148,17.8,22.682,29.2,22.682,29.2Z" transform="translate(135 798)" fill="#fff"/>
  </g>
</svg>
